<svg width="17" height="19" viewBox="0 0 17 19" fill="none" xmlns="http://www.w3.org/2000/svg">
<path d="M3.91728 15.8301C4.24907 15.9155 4.5578 15.9923 4.86141 16.0582C5.16501 16.1216 5.45581 16.1789 5.73892 16.2167C6.02202 16.2509 6.29232 16.2741 6.54981 16.2789C6.8073 16.2802 7.04941 16.2606 7.28 16.2289C7.39273 16.2033 7.50802 16.1911 7.61563 16.157C7.72708 16.1301 7.83213 16.1009 7.9282 16.0606C8.1242 15.9838 8.2997 15.8801 8.47008 15.7337C8.82109 15.4556 9.14519 14.9945 9.509 14.4822C9.68835 14.2236 9.88178 13.9541 10.097 13.6845C10.3096 13.4137 10.5479 13.1429 10.8157 12.8929C11.0821 12.6404 11.378 12.4074 11.6983 12.2098C12.0185 12.0086 12.3478 11.8488 12.7231 11.7146C13.0946 11.5865 13.4892 11.5182 13.8786 11.5036C14.268 11.4926 14.6511 11.5377 15.0085 11.6329C15.7271 11.8207 16.3382 12.1842 16.8455 12.6172C16.9262 12.6855 16.9326 12.8038 16.8609 12.8795C16.8058 12.938 16.7212 12.9551 16.6482 12.9307L16.6444 12.9295C16.0384 12.7185 15.4274 12.577 14.8509 12.5721C14.2732 12.566 13.7518 12.7038 13.3034 12.9539C13.0869 13.0832 12.8538 13.2442 12.6527 13.4186C12.4503 13.5955 12.2658 13.7857 12.0928 13.9943C11.9225 14.2041 11.7623 14.4298 11.6073 14.6725C11.4523 14.9152 11.3025 15.1751 11.1372 15.4446C10.9732 15.7142 10.8041 16.0033 10.5915 16.2936C10.3827 16.5839 10.1354 16.8839 9.82285 17.1608C9.51284 17.4353 9.13238 17.6756 8.72757 17.8415C8.52517 17.9268 8.31764 17.9927 8.11139 18.0366C7.90515 18.0915 7.69506 18.1122 7.48497 18.133C7.06607 18.1562 6.65101 18.1208 6.26158 18.0305C5.87471 17.9342 5.51217 17.7951 5.18295 17.6121C4.85372 17.4316 4.55652 17.2121 4.29647 16.9608C4.0377 16.7095 3.80968 16.4278 3.65339 16.0996C3.60599 15.9996 3.65211 15.8813 3.75715 15.8362C3.80327 15.8166 3.85195 15.8142 3.89807 15.8252L3.91728 15.8301Z" fill="#00C0B5"/>
<path d="M2.70165 11.109L5.89062 12.5098L10.7779 3.96472C11.0858 3.42642 10.9818 2.83473 10.5455 2.64313L8.93623 1.93625C8.50002 1.74465 7.89681 2.0257 7.58894 2.56399L2.70165 11.109Z" fill="#00C0B5"/>
<path d="M2.7169 15.0105L5.9516 12.9687L2.32318 11.673L1.96498 14.7415C1.92366 15.088 2.35272 15.2407 2.7169 15.0105Z" fill="#00C0B5"/>
</svg>
