<svg width="13" height="14" viewBox="0 0 13 14" fill="none" xmlns="http://www.w3.org/2000/svg">
<circle cx="6.5" cy="11.5" r="1.5" fill="white" stroke="#323438"/>
<mask id="path-2-inside-1_2080_8831" fill="white">
<path d="M1.5 2.5H11.5V4.3C11.5 5.4201 11.5 5.98016 11.282 6.40798C11.0903 6.78431 10.7843 7.09027 10.408 7.28201C9.98016 7.5 9.4201 7.5 8.3 7.5H4.7C3.5799 7.5 3.01984 7.5 2.59202 7.28201C2.21569 7.09027 1.90973 6.78431 1.71799 6.40798C1.5 5.98016 1.5 5.4201 1.5 4.3V2.5Z"/>
</mask>
<path d="M1.5 2.5H11.5H1.5ZM12.5 5.5C12.5 7.15685 11.1569 8.5 9.5 8.5H3.5C1.84315 8.5 0.5 7.15685 0.5 5.5H2.5C2.5 6.05228 2.94772 6.5 3.5 6.5H9.5C10.0523 6.5 10.5 6.05228 10.5 5.5H12.5ZM3.5 8.5C1.84315 8.5 0.5 7.15685 0.5 5.5V2.5H2.5V5.5C2.5 6.05228 2.94772 6.5 3.5 6.5V8.5ZM12.5 2.5V5.5C12.5 7.15685 11.1569 8.5 9.5 8.5V6.5C10.0523 6.5 10.5 6.05228 10.5 5.5V2.5H12.5Z" fill="#323438" mask="url(#path-2-inside-1_2080_8831)"/>
<rect x="6" y="6.5" width="1" height="4" fill="#323438"/>
<circle cx="2" cy="2.5" r="1.5" fill="white" stroke="#323438"/>
<circle cx="11" cy="2.5" r="1.5" fill="white" stroke="#323438"/>
</svg>
