<svg width="22" height="15" viewBox="0 0 22 15" fill="none" xmlns="http://www.w3.org/2000/svg">
<path d="M17.9524 6.12211C17.3557 2.99144 14.6072 0.625 11.3022 0.625C9.05776 0.625 7.06941 1.71772 5.83725 3.40037C6.85757 3.56931 7.76795 4.06807 8.45308 4.78135C8.75609 5.09777 9.01619 5.45576 9.22133 5.84592C9.22267 5.84726 9.22401 5.8486 9.22401 5.84994C9.25619 5.91161 9.28703 5.97329 9.31652 6.0363C9.32189 6.04703 9.32591 6.05776 9.33127 6.06848C9.35541 6.12211 9.37954 6.17574 9.40233 6.23071C9.40904 6.2468 9.41574 6.26423 9.42245 6.28166C9.44256 6.33127 9.46133 6.38088 9.4801 6.43049C9.48814 6.4506 9.49485 6.47205 9.50155 6.49216C9.51764 6.53909 9.53373 6.58602 9.54848 6.63294C9.55518 6.65708 9.56322 6.67987 9.56993 6.704C9.58334 6.74959 9.5954 6.79517 9.60747 6.84076C9.61417 6.86623 9.62088 6.89171 9.62758 6.91852C9.63831 6.96277 9.64769 7.00835 9.65842 7.05394C9.66378 7.08076 9.67049 7.10891 9.67585 7.13573C9.68389 7.17997 9.69194 7.22556 9.69998 7.27114C9.704 7.2993 9.70937 7.32611 9.71339 7.35427C9.72009 7.39986 9.72546 7.44678 9.73082 7.49371C9.7335 7.52187 9.73752 7.54868 9.7402 7.57684C9.74557 7.62779 9.74825 7.67873 9.75093 7.72968C9.75227 7.75382 9.75495 7.77795 9.75629 7.80208C9.75898 7.87717 9.76032 7.95225 9.76032 8.02867C9.76032 8.27403 9.74154 8.51537 9.70534 8.75134C9.35675 6.50289 7.41399 4.78135 5.06766 4.78135C5.06364 4.78135 5.05961 4.78135 5.05559 4.78135C2.46927 4.78806 0.375 6.88635 0.375 9.47401C0.375 12.0657 2.47597 14.1667 5.06766 14.1667H13.8818H14.0011H17.9389C20.1606 14.1667 21.9612 12.366 21.9612 10.1444C21.9612 7.92677 20.1673 6.12882 17.9524 6.12211Z" fill="#81929F"/>
</svg>
