<svg width="25" height="25" viewBox="0 0 25 25" fill="none" xmlns="http://www.w3.org/2000/svg">
<path d="M12.9996 10.9895C14.3774 10.9895 15.4944 9.87256 15.4944 8.49475C15.4944 7.11694 14.3774 6 12.9996 6C11.6218 6 10.5049 7.11694 10.5049 8.49475C10.5049 9.87256 11.6218 10.9895 12.9996 10.9895Z" fill="#81929F"/>
<path d="M14.8966 12.6592H11.0927C9.3917 12.6592 8 14.0509 8 15.7518V18.4837H17.9893V15.7518C17.9893 14.0509 16.6079 12.6592 14.8966 12.6592Z" fill="#81929F"/>
<path d="M14.6709 16.5879V18.495H18.0007V15.7529C18.0007 14.8972 17.6502 14.1241 17.0935 13.5674C15.7018 13.8766 14.6709 15.1137 14.6709 16.5879Z" fill="#81929F"/>
<path d="M8 18.495H11.3298V16.5879C11.3298 15.1137 10.2886 13.8766 8.90718 13.5674C8.3505 14.1344 8 14.9075 8 15.7529V18.495Z" fill="#81929F"/>
</svg>
