<svg width="26" height="16" viewBox="0 0 26 16" fill="none" xmlns="http://www.w3.org/2000/svg">
<circle cx="13" cy="3" r="3" fill="#81929F"/>
<circle cx="20.5" cy="4.5" r="2.5" fill="#81929F"/>
<circle cx="5.5" cy="4.5" r="2.5" fill="#81929F"/>
<path d="M23 9H18C16.3431 9 15 10.3431 15 12V15H26V12C26 10.3431 24.6569 9 23 9Z" fill="#81929F"/>
<path d="M8 9H3C1.34315 9 0 10.3431 0 12V15H11V12C11 10.3431 9.65685 9 8 9Z" fill="#81929F"/>
<path d="M6.5 15V15.5H7H19H19.5V15V11C19.5 9.067 17.933 7.5 16 7.5H10C8.067 7.5 6.5 9.067 6.5 11V15Z" fill="#81929F" stroke="#EAF0F4" stroke-linecap="square"/>
</svg>
