<svg width="22" height="42" viewBox="0 0 22 42" fill="none" xmlns="http://www.w3.org/2000/svg">
<path d="M13.3279 26.3274C13.6583 25.9518 14.2011 25.3135 14.4891 24.3036C14.7996 23.2127 14.3856 22.3474 14.3856 22.3474C14.3856 22.3474 16.0152 20.9566 16.9336 18.4988C17.8095 16.1525 17.7206 14.7206 17.0929 14.0929C16.4651 13.4651 15.0319 13.3749 12.6842 14.2521C10.2264 15.1705 8.83563 16.8001 8.83563 16.8001C8.83563 16.8001 7.97169 16.3874 6.87948 16.6966C5.86823 16.9833 5.23255 17.5261 4.85565 17.8578C4.28102 18.3635 3.89616 18.8386 3.89616 18.8386C3.89616 18.8386 3.67984 19.1027 3.89616 19.3668C4.11247 19.6308 5.76471 20.4417 6.32741 20.6195L5.5683 21.8086C5.5683 21.8086 5.29094 22.2532 5.77268 22.7349C6.25442 23.2167 7.1104 24.0727 7.1104 24.0727C7.1104 24.0727 7.9677 24.93 8.44811 25.4104C8.92853 25.8908 9.37443 25.6147 9.37443 25.6147L10.5635 24.8556C10.7413 25.4183 11.5522 27.0706 11.8163 27.2869C12.0804 27.5032 12.3445 27.2869 12.3445 27.2869C12.3445 27.2869 12.8222 26.9047 13.3279 26.3274ZM11.4752 19.7105C10.8648 19.1 10.8634 18.1087 11.4752 17.4969C12.0857 16.8864 13.077 16.8851 13.6888 17.4969C14.3006 18.1087 14.3006 19.0987 13.6888 19.7105C13.0757 20.3209 12.0857 20.3209 11.4752 19.7105Z" fill="#00C0B5"/>
<path d="M5.61332 25.5711C5.44611 25.4039 5.75532 24.2241 5.75532 24.2241L4.95508 23.4238C4.95508 23.4238 4.15484 24.5107 3.95444 25.3402C3.75405 26.1696 3.59878 27.1875 3.65452 27.5299C3.99691 27.5856 5.0148 27.4303 5.84424 27.23C6.67367 27.0296 7.76057 26.2293 7.76057 26.2293L6.96033 25.4291C6.959 25.4278 5.78054 25.7383 5.61332 25.5711Z" fill="#00C0B5"/>
</svg>
