<?xml version="1.0" encoding="UTF-8"?>
<svg xmlns="http://www.w3.org/2000/svg" xmlns:xlink="http://www.w3.org/1999/xlink" width="90px" height="90px" viewBox="0 0 90 90" version="1.1">
<defs>
<linearGradient id="linear0" gradientUnits="userSpaceOnUse" x1="0" y1="25600" x2="25600" y2="0" gradientTransform="matrix(0.351562,0,0,0.351562,0,0)">
<stop offset="0" style="stop-color:rgb(18.039216%,15.294118%,67.843137%);stop-opacity:1;"/>
<stop offset="1" style="stop-color:rgb(32.156863%,49.803922%,100%);stop-opacity:1;"/>
</linearGradient>
</defs>
<g id="surface1">
<rect x="0" y="0" width="90" height="90" style="fill:url(#linear0);stroke:none;"/>
<path style=" stroke:none;fill-rule:nonzero;fill:rgb(100%,100%,100%);fill-opacity:1;" d="M 57.375 69.25 L 57.375 62.664062 C 54.523438 64.507812 49.390625 65.378906 44.5 65.378906 C 39.167969 65.378906 35.011719 64.445312 32.625 62.851562 L 32.625 69.25 C 32.625 71.15625 37.066406 73.125 44.5 73.125 C 52.085938 73.125 57.375 71.082031 57.375 69.25 Z M 44.5 55.371094 C 39.167969 55.371094 35.011719 54.445312 32.625 52.847656 L 32.625 59.273438 C 32.660156 61.171875 37.09375 63.128906 44.5 63.128906 C 52.0625 63.128906 57.339844 61.097656 57.375 59.269531 L 57.375 52.660156 C 54.523438 54.503906 49.390625 55.371094 44.5 55.371094 Z M 57.375 49.265625 L 57.375 41.65625 C 54.523438 43.5 49.390625 44.371094 44.5 44.371094 C 39.167969 44.371094 35.011719 43.441406 32.625 41.84375 L 32.625 49.269531 C 32.660156 51.167969 37.09375 53.121094 44.5 53.121094 C 52.0625 53.121094 57.339844 51.09375 57.375 49.265625 Z M 32.621094 38.242188 C 32.621094 38.246094 32.621094 38.25 32.621094 38.253906 L 32.625 38.253906 L 32.625 38.265625 C 32.660156 40.164062 37.09375 42.117188 44.5 42.117188 C 52.761719 42.117188 57.339844 39.84375 57.375 38.261719 L 57.375 38.253906 L 57.378906 38.253906 C 57.378906 38.25 57.378906 38.246094 57.378906 38.242188 C 57.378906 36.65625 52.792969 34.363281 44.5 34.363281 C 37.0625 34.363281 32.621094 36.335938 32.621094 38.242188 Z M 59.625 38.269531 L 59.625 49.246094 L 59.628906 49.246094 C 59.628906 49.253906 59.625 49.261719 59.625 49.273438 L 59.625 59.25 L 59.628906 59.25 C 59.628906 59.261719 59.625 59.269531 59.625 59.277344 L 59.625 69.25 C 59.625 73.460938 51.785156 75.375 44.5 75.375 C 35.921875 75.375 30.375 72.96875 30.375 69.25 L 30.375 59.285156 C 30.375 59.273438 30.371094 59.261719 30.371094 59.25 L 30.375 59.25 L 30.375 49.28125 C 30.375 49.269531 30.371094 49.257812 30.371094 49.246094 L 30.375 49.246094 L 30.375 38.277344 C 30.375 38.265625 30.371094 38.253906 30.371094 38.242188 C 30.371094 34.519531 35.917969 32.113281 44.5 32.113281 C 51.785156 32.113281 59.628906 34.03125 59.628906 38.242188 C 59.628906 38.253906 59.625 38.257812 59.625 38.269531 Z M 75.375 23.761719 C 75.523438 23.761719 75.667969 23.730469 75.804688 23.675781 C 75.941406 23.617188 76.066406 23.535156 76.171875 23.429688 C 76.273438 23.328125 76.359375 23.203125 76.414062 23.066406 C 76.472656 22.929688 76.5 22.785156 76.5 22.636719 L 76.5 16.875 C 76.5 16.253906 75.996094 15.75 75.375 15.75 L 14.625 15.75 C 14.003906 15.75 13.5 16.253906 13.5 16.875 L 13.5 22.636719 C 13.5 22.933594 13.617188 23.21875 13.828125 23.429688 C 14.039062 23.640625 14.328125 23.761719 14.625 23.761719 C 16 23.761719 17.117188 24.871094 17.117188 26.234375 C 17.117188 27.601562 16 28.710938 14.625 28.710938 C 14.328125 28.710938 14.039062 28.828125 13.828125 29.039062 C 13.617188 29.25 13.5 29.539062 13.5 29.835938 L 13.5 52.878906 C 13.5 53.175781 13.617188 53.464844 13.828125 53.675781 C 14.039062 53.886719 14.328125 54.003906 14.625 54.003906 L 25.875 54.003906 L 25.875 51.753906 L 20.25 51.753906 L 20.25 48.378906 L 25.875 48.378906 L 25.875 46.128906 L 19.125 46.128906 C 18.503906 46.128906 18 46.632812 18 47.253906 L 18 51.753906 L 15.75 51.753906 L 15.75 30.828125 C 17.824219 30.320312 19.367188 28.457031 19.367188 26.238281 C 19.367188 24.015625 17.824219 22.148438 15.75 21.644531 L 15.75 18 L 74.25 18 L 74.25 21.644531 C 72.175781 22.148438 70.632812 24.015625 70.632812 26.234375 C 70.632812 28.453125 72.175781 30.320312 74.25 30.824219 L 74.25 51.753906 L 72 51.753906 L 72 47.253906 C 72 46.628906 71.496094 46.128906 70.875 46.128906 L 64.125 46.128906 L 64.125 48.378906 L 69.75 48.378906 L 69.75 51.753906 L 64.125 51.753906 L 64.125 54.003906 L 75.375 54.003906 C 75.671875 54.003906 75.960938 53.882812 76.171875 53.671875 C 76.382812 53.460938 76.5 53.175781 76.5 52.878906 L 76.5 29.835938 C 76.5 29.539062 76.382812 29.25 76.171875 29.039062 C 75.960938 28.828125 75.671875 28.710938 75.375 28.710938 C 74 28.710938 72.882812 27.601562 72.882812 26.234375 C 72.882812 24.871094 74 23.761719 75.375 23.761719 Z M 31.5 31.5 L 31.5 22.5 C 31.5 21.878906 30.996094 21.375 30.375 21.375 L 23.625 21.375 C 23.003906 21.375 22.5 21.878906 22.5 22.5 L 22.5 41.628906 C 22.5 41.925781 22.617188 42.210938 22.828125 42.421875 C 23.039062 42.632812 23.328125 42.753906 23.625 42.753906 L 27 42.753906 L 27 40.503906 L 24.75 40.503906 L 24.75 23.625 L 29.25 23.625 L 29.25 31.5 Z M 65.25 40.503906 L 64.125 40.503906 L 64.125 42.753906 L 66.375 42.753906 C 66.671875 42.753906 66.960938 42.632812 67.171875 42.421875 C 67.382812 42.210938 67.5 41.925781 67.5 41.628906 L 67.5 22.5 C 67.5 21.878906 66.996094 21.375 66.375 21.375 L 59.625 21.375 C 59.003906 21.375 58.5 21.878906 58.5 22.5 L 58.5 31.5 L 60.75 31.5 L 60.75 23.625 L 65.25 23.625 Z M 56.25 30.375 L 56.25 22.5 C 56.25 21.878906 55.746094 21.375 55.125 21.375 L 47.25 21.375 C 46.628906 21.375 46.125 21.878906 46.125 22.5 L 46.125 29.25 L 48.375 29.25 L 48.375 23.625 L 54 23.625 L 54 30.375 Z M 41.625 29.25 L 41.625 23.625 L 36 23.625 L 36 30.375 L 33.75 30.375 L 33.75 22.5 C 33.75 21.878906 34.253906 21.375 34.875 21.375 L 42.75 21.375 C 43.371094 21.375 43.875 21.878906 43.875 22.5 L 43.875 29.25 Z M 41.625 29.25 "/>
</g>
</svg>
