<?xml version="1.0" encoding="UTF-8"?>
<svg xmlns="http://www.w3.org/2000/svg" xmlns:xlink="http://www.w3.org/1999/xlink" width="90px" height="90px" viewBox="0 0 90 90" version="1.1">
<defs>
<linearGradient id="linear0" gradientUnits="userSpaceOnUse" x1="0" y1="25600" x2="25600" y2="0" gradientTransform="matrix(0.351562,0,0,0.351562,0,0)">
<stop offset="0" style="stop-color:rgb(30.196078%,15.294118%,65.882353%);stop-opacity:1;"/>
<stop offset="1" style="stop-color:rgb(63.137255%,40%,100%);stop-opacity:1;"/>
</linearGradient>
</defs>
<g id="surface1">
<rect x="0" y="0" width="90" height="90" style="fill:url(#linear0);stroke:none;"/>
<path style=" stroke:none;fill-rule:nonzero;fill:rgb(100%,100%,100%);fill-opacity:1;" d="M 62.011719 58.636719 C 62.011719 56.777344 60.496094 55.261719 58.636719 55.261719 C 56.777344 55.261719 55.261719 56.777344 55.261719 58.636719 C 55.261719 60.5 56.777344 62.011719 58.636719 62.011719 C 60.496094 62.011719 62.011719 60.5 62.011719 58.636719 Z M 64.261719 58.636719 C 64.261719 61.738281 61.738281 64.261719 58.636719 64.261719 C 55.535156 64.261719 53.011719 61.738281 53.011719 58.636719 C 53.011719 55.535156 55.535156 53.011719 58.636719 53.011719 C 61.738281 53.011719 64.261719 55.535156 64.261719 58.636719 Z M 34.191406 42.402344 C 34.191406 40.542969 32.675781 39.027344 30.816406 39.027344 C 28.953125 39.027344 27.441406 40.542969 27.441406 42.402344 C 27.441406 44.265625 28.953125 45.777344 30.816406 45.777344 C 32.675781 45.777344 34.191406 44.265625 34.191406 42.402344 Z M 36.441406 42.402344 C 36.441406 45.503906 33.917969 48.027344 30.816406 48.027344 C 27.714844 48.027344 25.191406 45.503906 25.191406 42.402344 C 25.191406 39.300781 27.714844 36.777344 30.816406 36.777344 C 33.917969 36.777344 36.441406 39.300781 36.441406 42.402344 Z M 44.695312 24.757812 C 44.695312 26.617188 46.210938 28.132812 48.070312 28.132812 C 49.933594 28.132812 51.445312 26.617188 51.445312 24.757812 C 51.445312 22.894531 49.933594 21.382812 48.070312 21.382812 C 46.210938 21.382812 44.695312 22.894531 44.695312 24.757812 Z M 42.445312 24.757812 C 42.445312 21.65625 44.96875 19.132812 48.070312 19.132812 C 51.171875 19.132812 53.695312 21.65625 53.695312 24.757812 C 53.695312 27.859375 51.171875 30.382812 48.070312 30.382812 C 44.96875 30.382812 42.445312 27.859375 42.445312 24.757812 Z M 74.25 45 C 74.25 34.566406 68.65625 24.917969 59.636719 19.699219 C 58.023438 20.023438 56.457031 20.46875 54.507812 21.175781 L 53.742188 19.058594 C 54.667969 18.722656 55.605469 18.417969 56.550781 18.140625 C 52.902344 16.566406 48.972656 15.753906 45 15.75 C 43.101562 15.75 41.230469 15.945312 39.402344 16.304688 C 40.726562 17.078125 41.898438 17.847656 43.039062 18.714844 L 41.679688 20.503906 C 40.074219 19.289062 38.40625 18.257812 36.222656 17.109375 C 25.175781 20.585938 17.21875 30.328125 15.957031 41.769531 C 18.273438 41.300781 20.496094 41.042969 22.964844 40.984375 L 23.019531 43.234375 C 20.433594 43.296875 18.210938 43.570312 15.78125 44.105469 C 15.769531 44.402344 15.75 44.707031 15.75 45 C 15.75 54.742188 20.570312 63.714844 28.492188 69.128906 C 27.082031 64.929688 26.382812 60.964844 26.382812 57.089844 C 26.382812 54.878906 26.761719 53.066406 27.164062 51.144531 C 27.257812 50.699219 27.351562 50.25 27.441406 49.777344 L 29.652344 50.214844 C 29.558594 50.691406 29.460938 51.152344 29.367188 51.605469 C 28.972656 53.488281 28.632812 55.113281 28.632812 57.089844 C 28.632812 61.484375 29.597656 66.03125 31.5625 70.96875 C 35.746094 73.140625 40.261719 74.25 45 74.25 C 48.101562 74.25 51.125 73.753906 54.011719 72.804688 C 55.144531 70.566406 55.988281 68.457031 56.6875 66.035156 L 58.851562 66.664062 C 58.359375 68.359375 57.757812 70.019531 57.046875 71.636719 C 58.863281 70.820312 60.582031 69.808594 62.195312 68.628906 C 61.804688 67.679688 61.390625 66.734375 60.929688 65.8125 L 62.941406 64.804688 C 63.332031 65.585938 63.691406 66.386719 64.035156 67.195312 C 70.542969 61.621094 74.25 53.617188 74.25 45 Z M 76.5 45 C 76.5 54.816406 72.039062 63.898438 64.261719 69.917969 C 62.335938 71.414062 60.246094 72.65625 58.039062 73.65625 C 57.101562 74.082031 56.144531 74.476562 55.164062 74.804688 C 51.925781 75.929688 48.503906 76.5 45 76.5 C 39.824219 76.5 34.6875 75.210938 30.136719 72.773438 C 19.875 67.28125 13.5 56.640625 13.5 45 C 13.5 44.226562 13.519531 43.640625 13.566406 43.097656 C 14.332031 29.953125 23.351562 18.578125 36 14.8125 C 38.882812 13.941406 41.910156 13.5 45 13.5 C 50.410156 13.5 55.730469 14.894531 60.394531 17.527344 C 70.328125 23.089844 76.5 33.621094 76.5 45 Z M 41.976562 28.644531 L 40.5 26.949219 C 37.976562 29.152344 36.015625 31.488281 33.722656 35.015625 L 35.613281 36.242188 C 37.78125 32.898438 39.625 30.699219 41.976562 28.644531 Z M 38.558594 43.230469 L 37.828125 45.359375 C 42.996094 47.132812 47.503906 49.960938 52.011719 54.265625 L 53.566406 52.636719 C 48.8125 48.101562 44.042969 45.113281 38.558594 43.230469 Z M 53.601562 30 C 57.824219 36.4375 60.199219 43.503906 60.664062 51.003906 L 58.421875 51.144531 C 57.976562 44.039062 55.726562 37.339844 51.722656 31.234375 Z M 53.601562 30 "/>
</g>
</svg>
