<?xml version="1.0" encoding="UTF-8"?>
<svg xmlns="http://www.w3.org/2000/svg" xmlns:xlink="http://www.w3.org/1999/xlink" width="90px" height="90px" viewBox="0 0 90 90" version="1.1">
<defs>
<linearGradient id="linear0" gradientUnits="userSpaceOnUse" x1="0" y1="1" x2="1" y2="0" gradientTransform="matrix(90,0,0,90,0,0)">
<stop offset="0" style="stop-color:rgb(10.588235%,40%,5.882353%);stop-opacity:1;"/>
<stop offset="1" style="stop-color:rgb(42.352941%,68.235294%,24.313725%);stop-opacity:1;"/>
</linearGradient>
</defs>
<g id="surface1">
<rect x="0" y="0" width="90" height="90" style="fill:url(#linear0);stroke:none;"/>
<path style=" stroke:none;fill-rule:evenodd;fill:rgb(100%,100%,100%);fill-opacity:1;" d="M 35.300781 27.027344 C 42.347656 24.078125 47.335938 27.957031 49.15625 29.757812 C 50.636719 31.230469 51.792969 33.113281 52.59375 35.347656 C 52.730469 35.738281 53.074219 36.019531 53.484375 36.082031 C 53.898438 36.136719 54.304688 35.976562 54.550781 35.644531 C 55.4375 34.464844 56.734375 33.789062 58.109375 33.789062 C 60.164062 33.789062 62.652344 35.347656 62.910156 39.738281 C 62.9375 40.246094 63.304688 40.667969 63.800781 40.773438 C 68.902344 41.84375 71.488281 44.675781 71.488281 49.179688 C 71.488281 53.367188 69.570312 55.957031 65.792969 56.871094 L 66.320312 59.058594 C 71.105469 57.898438 73.738281 54.390625 73.738281 49.179688 C 73.738281 43.875 70.671875 40.203125 65.078125 38.761719 C 64.46875 33.78125 61.210938 31.539062 58.109375 31.539062 C 56.628906 31.539062 55.214844 32.042969 54.050781 32.964844 C 53.191406 31.105469 52.085938 29.5 50.742188 28.160156 C 46.28125 23.746094 40.1875 22.546875 34.429688 24.953125 C 29.507812 27.015625 25.796875 32.710938 25.796875 38.199219 C 25.796875 38.46875 25.804688 38.746094 25.820312 39.035156 C 21.300781 40.519531 18.636719 44.226562 18.636719 49.117188 C 18.636719 49.363281 18.644531 49.605469 18.660156 49.84375 C 18.890625 54.074219 21.714844 57.730469 25.855469 59.160156 L 26.585938 57.03125 C 23.320312 55.902344 21.089844 53.03125 20.90625 49.726562 C 20.894531 49.527344 20.886719 49.324219 20.886719 49.117188 C 20.886719 43.398438 24.90625 41.542969 27.300781 40.949219 C 27.851562 40.8125 28.210938 40.285156 28.144531 39.722656 C 28.078125 39.164062 28.046875 38.667969 28.046875 38.199219 C 28.046875 33.640625 31.234375 28.734375 35.300781 27.027344 Z M 58.480469 50.625 C 58.480469 50.179688 58.382812 49.84375 58.207031 49.679688 C 58.015625 49.5 57.679688 49.484375 57.429688 49.5 L 42.730469 49.5 C 42.109375 49.5 41.605469 48.996094 41.605469 48.375 C 41.605469 48.070312 41.492188 47.21875 41.359375 46.6875 L 37.46875 46.6875 C 37.296875 47.207031 37.113281 48.082031 37.105469 48.378906 C 37.089844 48.992188 36.589844 49.5 35.980469 49.5 L 32.605469 49.5 C 32.273438 49.480469 31.941406 49.5 31.75 49.679688 C 31.574219 49.84375 31.480469 50.179688 31.480469 50.625 L 31.480469 66.375 L 58.480469 66.375 Z M 60.730469 52.875 L 60.730469 61.007812 L 63.632812 52.875 Z M 60.664062 67.882812 L 60.65625 67.878906 C 60.5 68.3125 60.09375 68.628906 59.605469 68.628906 L 30.355469 68.628906 C 29.734375 68.628906 29.230469 68.121094 29.230469 67.5 L 29.230469 50.625 C 29.230469 49.246094 29.765625 48.457031 30.214844 48.035156 C 30.644531 47.632812 31.410156 47.160156 32.679688 47.253906 L 34.984375 47.253906 C 35.1875 46.089844 35.6875 44.4375 36.886719 44.4375 L 42.007812 44.4375 C 42.078125 44.4375 42.148438 44.445312 42.214844 44.457031 C 43.273438 44.65625 43.648438 46.15625 43.78125 47.25 L 57.355469 47.25 C 58.542969 47.167969 59.3125 47.632812 59.746094 48.035156 C 60.195312 48.457031 60.730469 49.246094 60.730469 50.625 L 65.230469 50.625 C 65.597656 50.625 65.9375 50.804688 66.148438 51.101562 C 66.359375 51.402344 66.414062 51.785156 66.289062 52.128906 Z M 74.230469 72.660156 L 65.671875 64.101562 L 64.082031 65.695312 L 72.636719 74.25 L 66.445312 74.25 L 66.445312 76.5 L 75.355469 76.5 C 75.976562 76.5 76.480469 75.996094 76.480469 75.375 L 76.480469 66.46875 L 74.230469 66.46875 Z M 25.453125 64.0625 L 15.730469 72.84375 L 15.730469 66.46875 L 13.480469 66.46875 L 13.480469 75.375 C 13.480469 75.996094 13.984375 76.5 14.605469 76.5 L 24.640625 76.5 L 24.640625 74.25 L 17.527344 74.25 L 26.960938 65.734375 Z M 75.355469 13.5 L 65.320312 13.5 L 65.320312 15.75 L 72.824219 15.75 L 64.042969 25.472656 L 65.710938 26.980469 L 74.230469 17.550781 L 74.230469 24.660156 L 76.480469 24.660156 L 76.480469 14.625 C 76.480469 14.003906 75.976562 13.5 75.355469 13.5 Z M 15.730469 24.660156 L 13.480469 24.660156 L 13.480469 14.625 C 13.480469 14.003906 13.984375 13.5 14.605469 13.5 L 24.640625 13.5 L 24.640625 15.75 L 17.320312 15.75 L 27 25.429688 L 25.410156 27.023438 L 15.730469 17.34375 Z M 15.730469 24.660156 "/>
</g>
</svg>
