<?xml version="1.0" encoding="UTF-8"?>
<svg xmlns="http://www.w3.org/2000/svg" xmlns:xlink="http://www.w3.org/1999/xlink" width="80px" height="80px" viewBox="0 0 80 80" version="1.1">
<g id="surface1">
    <rect x="0" y="0" width="100%" height="100%" fill="transparent" />
<path style=" stroke:none;fill-rule:evenodd;fill:rgb(54.901961%,30.980392%,100%);fill-opacity:1;" d="M 56.148438 57.292969 L 60.058594 57.292969 L 60.058594 53.332031 L 56.148438 53.332031 Z M 44.585938 57.292969 L 48.542969 57.292969 L 48.542969 53.332031 L 44.585938 53.332031 Z M 31.460938 57.292969 L 35.417969 57.292969 L 35.417969 53.332031 L 31.460938 53.332031 Z M 19.941406 57.292969 L 23.75 57.292969 L 23.75 53.332031 L 19.941406 53.332031 Z M 30 28.125 L 50 28.125 L 50 18.332031 L 30 18.332031 Z M 61.726562 50 L 59.167969 50 L 59.167969 44.375 C 59.167969 43.453125 58.421875 42.707031 57.5 42.707031 L 53.335938 42.707031 L 53.335938 37.082031 C 53.335938 36.160156 52.589844 35.417969 51.667969 35.417969 L 41.667969 35.417969 L 41.667969 31.457031 L 51.667969 31.457031 C 52.589844 31.457031 53.335938 30.714844 53.335938 29.792969 L 53.335938 16.667969 C 53.335938 15.746094 52.589844 15 51.667969 15 L 28.335938 15 C 27.414062 15 26.667969 15.746094 26.667969 16.667969 L 26.667969 29.792969 C 26.667969 30.714844 27.414062 31.457031 28.335938 31.457031 L 38.335938 31.457031 L 38.335938 35.417969 L 28.335938 35.417969 C 27.414062 35.417969 26.667969 36.160156 26.667969 37.082031 L 26.667969 42.707031 L 22.5 42.707031 C 21.578125 42.707031 20.835938 43.453125 20.835938 44.375 L 20.835938 50 L 18.273438 50 C 17.355469 50 16.609375 50.746094 16.609375 51.667969 L 16.609375 58.957031 C 16.609375 59.878906 17.355469 60.625 18.273438 60.625 L 25.417969 60.625 C 26.339844 60.625 27.085938 59.878906 27.085938 58.957031 L 27.085938 51.667969 C 27.085938 50.746094 26.339844 50 25.417969 50 L 24.167969 50 L 24.167969 46.042969 L 31.042969 46.042969 L 31.042969 50 L 29.792969 50 C 28.871094 50 28.125 50.746094 28.125 51.667969 L 28.125 58.957031 C 28.125 59.878906 28.871094 60.625 29.792969 60.625 L 37.085938 60.625 C 38.003906 60.625 38.75 59.878906 38.75 58.957031 L 38.75 51.667969 C 38.75 50.746094 38.003906 50 37.085938 50 L 34.375 50 L 34.375 44.375 C 34.375 43.453125 33.628906 42.707031 32.710938 42.707031 L 30 42.707031 L 30 38.75 L 50 38.75 L 50 42.707031 L 47.292969 42.707031 C 46.371094 42.707031 45.625 43.453125 45.625 44.375 L 45.625 50 L 42.917969 50 C 41.996094 50 41.25 50.746094 41.25 51.667969 L 41.25 58.957031 C 41.25 59.878906 41.996094 60.625 42.917969 60.625 L 50.210938 60.625 C 51.128906 60.625 51.875 59.878906 51.875 58.957031 L 51.875 51.667969 C 51.875 50.746094 51.128906 50 50.210938 50 L 48.960938 50 L 48.960938 46.042969 L 55.835938 46.042969 L 55.835938 50 L 54.484375 50 C 53.5625 50 52.816406 50.746094 52.816406 51.667969 L 52.816406 58.957031 C 52.816406 59.878906 53.5625 60.625 54.484375 60.625 L 61.726562 60.625 C 62.644531 60.625 63.390625 59.878906 63.390625 58.957031 L 63.390625 51.667969 C 63.390625 50.746094 62.644531 50 61.726562 50 Z M 40 73.332031 C 21.621094 73.332031 6.667969 58.378906 6.667969 40 C 6.667969 21.621094 21.621094 6.667969 40 6.667969 C 58.382812 6.667969 73.335938 21.621094 73.335938 40 C 73.335938 58.378906 58.382812 73.332031 40 73.332031 Z M 40 3.332031 C 19.78125 3.332031 3.332031 19.78125 3.332031 40 C 3.332031 60.21875 19.78125 76.667969 40 76.667969 C 60.21875 76.667969 76.667969 60.21875 76.667969 40 C 76.667969 19.78125 60.21875 3.332031 40 3.332031 Z M 40 3.332031 "/>
</g>
</svg>
