<?xml version="1.0" encoding="UTF-8"?>
<svg xmlns="http://www.w3.org/2000/svg" xmlns:xlink="http://www.w3.org/1999/xlink" width="80px" height="80px" viewBox="0 0 80 80" version="1.1">
<g id="surface1">
<path style=" stroke:none;fill-rule:evenodd;fill:rgb(54.901961%,30.980392%,100%);fill-opacity:1;" d="M 22.710938 59.867188 L 22.710938 55.136719 L 25.664062 57.503906 Z M 22.085938 50.367188 C 21.582031 49.964844 20.894531 49.886719 20.320312 50.167969 C 19.746094 50.445312 19.375 51.027344 19.375 51.667969 L 19.375 63.335938 C 19.375 63.976562 19.746094 64.558594 20.320312 64.839844 C 20.550781 64.949219 20.796875 65.003906 21.042969 65.003906 C 21.414062 65.003906 21.78125 64.878906 22.085938 64.636719 L 29.375 58.804688 C 29.769531 58.488281 30 58.011719 30 57.503906 C 30 56.996094 29.769531 56.519531 29.375 56.203125 Z M 62.085938 44.726562 L 62.085938 38.191406 L 65.355469 41.460938 Z M 68.890625 40.28125 L 61.597656 32.988281 C 61.121094 32.511719 60.40625 32.371094 59.78125 32.628906 C 59.15625 32.886719 58.753906 33.496094 58.753906 34.167969 L 58.753906 39.792969 L 46.042969 39.792969 L 46.042969 23.960938 C 46.042969 23.039062 45.296875 22.292969 44.375 22.292969 L 31.550781 22.292969 L 31.550781 25.625 L 42.710938 25.625 L 42.710938 39.792969 L 31.25 39.792969 L 31.25 43.125 L 42.710938 43.125 L 42.710938 57.292969 L 31.550781 57.292969 L 31.550781 60.628906 L 44.375 60.628906 C 45.296875 60.628906 46.042969 59.882812 46.042969 58.960938 L 46.042969 43.125 L 58.753906 43.125 L 58.753906 48.753906 C 58.753906 49.425781 59.160156 50.035156 59.78125 50.292969 C 59.988281 50.378906 60.203125 50.417969 60.417969 50.417969 C 60.851562 50.417969 61.277344 50.25 61.597656 49.929688 L 68.890625 42.636719 C 69.539062 41.988281 69.539062 40.933594 68.890625 40.28125 Z M 22.710938 43.828125 L 22.710938 39.09375 L 25.664062 41.460938 Z M 22.085938 34.324219 C 21.582031 33.921875 20.894531 33.847656 20.320312 34.125 C 19.746094 34.402344 19.375 34.984375 19.375 35.625 L 19.375 47.292969 C 19.375 47.9375 19.746094 48.519531 20.320312 48.796875 C 20.550781 48.90625 20.796875 48.960938 21.042969 48.960938 C 21.414062 48.960938 21.78125 48.839844 22.085938 48.597656 L 29.375 42.761719 C 29.769531 42.445312 30 41.964844 30 41.460938 C 30 40.953125 29.769531 40.476562 29.375 40.15625 Z M 22.710938 26.324219 L 22.710938 21.59375 L 25.664062 23.960938 Z M 22.085938 16.824219 C 21.582031 16.421875 20.894531 16.34375 20.320312 16.625 C 19.746094 16.902344 19.375 17.484375 19.375 18.125 L 19.375 29.792969 C 19.375 30.433594 19.746094 31.015625 20.320312 31.292969 C 20.550781 31.40625 20.796875 31.460938 21.042969 31.460938 C 21.414062 31.460938 21.78125 31.335938 22.085938 31.09375 L 29.375 25.261719 C 29.769531 24.945312 30 24.464844 30 23.960938 C 30 23.453125 29.769531 22.976562 29.375 22.65625 Z M 40 73.339844 C 21.621094 73.339844 6.664062 58.382812 6.664062 40 C 6.664062 21.621094 21.621094 6.667969 40 6.667969 C 58.382812 6.667969 73.335938 21.621094 73.335938 40 C 73.335938 58.382812 58.382812 73.339844 40 73.339844 Z M 40 3.332031 C 19.78125 3.332031 3.332031 19.78125 3.332031 40 C 3.332031 60.222656 19.78125 76.671875 40 76.671875 C 60.222656 76.671875 76.671875 60.222656 76.671875 40 C 76.671875 19.78125 60.222656 3.332031 40 3.332031 Z M 40 3.332031 "/>
</g>
</svg>
