<?xml version="1.0" encoding="UTF-8"?>
<svg xmlns="http://www.w3.org/2000/svg" xmlns:xlink="http://www.w3.org/1999/xlink" width="80px" height="80px" viewBox="0 0 80 80" version="1.1">
<g id="surface1">
    <rect x="0" y="0" width="100%" height="100%" fill="transparent" />
<path style=" stroke:none;fill-rule:evenodd;fill:rgb(54.901961%,30.980392%,100%);fill-opacity:1;" d="M 40.003906 73.339844 C 21.621094 73.339844 6.664062 58.382812 6.664062 40 C 6.664062 21.621094 21.621094 6.667969 40.003906 6.667969 C 58.382812 6.667969 73.335938 21.621094 73.335938 40 C 73.335938 58.382812 58.382812 73.339844 40.003906 73.339844 Z M 40.003906 3.332031 C 19.78125 3.332031 3.332031 19.78125 3.332031 40 C 3.332031 60.222656 19.78125 76.671875 40.003906 76.671875 C 60.222656 76.671875 76.671875 60.222656 76.671875 40 C 76.671875 19.78125 60.222656 3.332031 40.003906 3.332031 Z M 48.472656 38.824219 C 49.125 39.476562 49.125 40.527344 48.472656 41.179688 L 43.566406 46.089844 L 41.210938 43.734375 L 43.273438 41.667969 L 31.25 41.667969 L 31.25 38.335938 L 43.273438 38.335938 L 41.210938 36.269531 L 43.566406 33.914062 Z M 53.335938 58.753906 L 58.753906 58.753906 L 58.753906 53.335938 L 53.335938 53.335938 Z M 60.417969 50.003906 L 51.667969 50.003906 C 50.746094 50.003906 50.003906 50.75 50.003906 51.667969 L 50.003906 60.417969 C 50.003906 61.339844 50.746094 62.085938 51.667969 62.085938 L 60.417969 62.085938 C 61.339844 62.085938 62.085938 61.339844 62.085938 60.417969 L 62.085938 51.667969 C 62.085938 50.75 61.339844 50.003906 60.417969 50.003906 Z M 29.445312 31.234375 L 41.601562 24.816406 L 38.992188 24.109375 L 39.863281 20.894531 L 46.5625 22.707031 C 47.449219 22.949219 47.972656 23.863281 47.734375 24.753906 L 45.917969 31.453125 L 42.699219 30.582031 L 43.515625 27.578125 L 31 34.183594 Z M 53.335938 26.667969 L 58.753906 26.667969 L 58.753906 21.25 L 53.335938 21.25 Z M 60.417969 17.917969 L 51.667969 17.917969 C 50.746094 17.917969 50.003906 18.664062 50.003906 19.585938 L 50.003906 28.335938 C 50.003906 29.257812 50.746094 30 51.667969 30 L 60.417969 30 C 61.339844 30 62.085938 29.257812 62.085938 28.335938 L 62.085938 19.585938 C 62.085938 18.664062 61.339844 17.917969 60.417969 17.917969 Z M 13.910156 45.578125 L 25.058594 45.578125 L 25.058594 34.429688 L 13.910156 34.429688 Z M 26.726562 31.09375 L 12.242188 31.09375 C 11.320312 31.09375 10.574219 31.839844 10.574219 32.761719 L 10.574219 47.246094 C 10.574219 48.164062 11.320312 48.910156 12.242188 48.910156 L 26.726562 48.910156 C 27.648438 48.910156 28.390625 48.164062 28.390625 47.246094 L 28.390625 32.761719 C 28.390625 31.839844 27.648438 31.09375 26.726562 31.09375 Z M 47.734375 55.25 C 47.972656 56.140625 47.449219 57.054688 46.5625 57.292969 L 39.863281 59.113281 L 38.992188 55.894531 L 41.605469 55.1875 L 29.445312 48.769531 L 31 45.820312 L 43.515625 52.425781 L 42.699219 49.417969 L 45.917969 48.546875 Z M 53.335938 42.710938 L 58.753906 42.710938 L 58.753906 37.292969 L 53.335938 37.292969 Z M 60.417969 33.960938 L 51.667969 33.960938 C 50.746094 33.960938 50.003906 34.703125 50.003906 35.625 L 50.003906 44.375 C 50.003906 45.296875 50.746094 46.042969 51.667969 46.042969 L 60.417969 46.042969 C 61.339844 46.042969 62.085938 45.296875 62.085938 44.375 L 62.085938 35.625 C 62.085938 34.703125 61.339844 33.960938 60.417969 33.960938 Z M 60.417969 33.960938 "/>
</g>
</svg>
