<?xml version="1.0" encoding="UTF-8"?>
<svg xmlns="http://www.w3.org/2000/svg" xmlns:xlink="http://www.w3.org/1999/xlink" width="80px" height="80px" viewBox="0 0 80 80" version="1.1">
<g id="surface1">
    <rect width="100%" height="100%" fill="transparent" />
<path style=" stroke:none;fill-rule:evenodd;fill:rgb(54.901961%,30.980392%,100%);fill-opacity:1;" d="M 55.71875 58.628906 L 53.222656 58.628906 L 53.222656 29.167969 C 53.222656 28.515625 52.835938 27.917969 52.242188 27.652344 L 52.085938 27.582031 C 48.738281 26.070312 45.273438 24.503906 40.292969 24.503906 C 35.089844 24.503906 31.269531 26.1875 27.492188 28.0625 C 26.925781 28.34375 26.566406 28.921875 26.566406 29.554688 L 26.566406 58.628906 L 24.128906 58.628906 L 24.128906 27.1875 C 28.183594 23.886719 34.035156 22.007812 40.308594 22.007812 C 46.144531 22.007812 51.707031 23.667969 55.71875 26.589844 Z M 40.308594 18.675781 C 32.933594 18.675781 26.027344 21.039062 21.359375 25.167969 C 21 25.480469 20.796875 25.9375 20.796875 26.414062 L 20.796875 60.296875 C 20.796875 61.21875 21.539062 61.964844 22.460938 61.964844 L 28.234375 61.964844 C 29.15625 61.964844 29.898438 61.21875 29.898438 60.296875 L 29.898438 30.59375 C 33.097656 29.046875 36.199219 27.839844 40.292969 27.839844 C 44.183594 27.839844 47.015625 28.964844 49.886719 30.246094 L 49.886719 60.296875 C 49.886719 61.21875 50.632812 61.964844 51.554688 61.964844 L 57.386719 61.964844 C 58.308594 61.964844 59.050781 61.21875 59.050781 60.296875 L 59.050781 25.761719 C 59.050781 25.257812 58.820312 24.777344 58.421875 24.457031 C 53.796875 20.78125 47.195312 18.675781 40.308594 18.675781 Z M 39.921875 73.179688 C 21.585938 73.179688 6.664062 58.261719 6.664062 39.921875 C 6.664062 21.585938 21.585938 6.667969 39.921875 6.667969 C 58.261719 6.667969 73.183594 21.585938 73.183594 39.921875 C 73.183594 58.261719 58.261719 73.179688 39.921875 73.179688 Z M 39.921875 3.332031 C 19.746094 3.332031 3.332031 19.746094 3.332031 39.921875 C 3.332031 60.101562 19.746094 76.515625 39.921875 76.515625 C 60.101562 76.515625 76.515625 60.101562 76.515625 39.921875 C 76.515625 19.746094 60.101562 3.332031 39.921875 3.332031 Z M 39.921875 3.332031 "/>
</g>
</svg>
