<?xml version="1.0" encoding="UTF-8"?>
<svg xmlns="http://www.w3.org/2000/svg" xmlns:xlink="http://www.w3.org/1999/xlink" width="80px" height="80px" viewBox="0 0 80 80" version="1.1">
<g id="surface1">    <rect width="100%" height="100%" fill="transparent" />

<path style=" stroke:none;fill-rule:evenodd;fill:rgb(14.117647%,18.431373%,24.313725%);fill-opacity:1;" d="M 10.042969 73.332031 C 10.875 56.808594 23.992188 43.628906 40 43.628906 C 45.414062 43.628906 50.714844 45.152344 55.339844 48.035156 C 63.921875 53.386719 69.421875 62.972656 69.957031 73.332031 Z M 23.652344 23.128906 C 23.652344 14.054688 30.988281 6.667969 40 6.667969 C 49.011719 6.667969 56.34375 14.054688 56.34375 23.128906 C 56.34375 32.207031 49.011719 39.59375 40 39.59375 C 30.988281 39.59375 23.652344 32.207031 23.652344 23.128906 Z M 57.105469 45.207031 C 54.214844 43.40625 51.082031 42.101562 47.828125 41.285156 C 54.796875 38.230469 59.679688 31.25 59.679688 23.128906 C 59.679688 12.214844 50.851562 3.332031 40 3.332031 C 29.148438 3.332031 20.320312 12.214844 20.320312 23.128906 C 20.320312 31.257812 25.214844 38.25 32.195312 41.296875 C 17.574219 44.96875 6.667969 58.667969 6.667969 75 C 6.667969 75.921875 7.410156 76.667969 8.332031 76.667969 L 71.667969 76.667969 C 72.585938 76.667969 73.332031 75.921875 73.332031 75 C 73.332031 62.863281 67.113281 51.449219 57.105469 45.207031 Z M 57.105469 45.207031 "/>
</g>
</svg>
