<svg class="test" width="100%" height="100%" viewBox="-348.4939985932408 -17.65146135906707 2070.6000000000013 1309.000000000001" xmlns="http://www.w3.org/2000/svg"><g id="background"><defs><pattern id="dottedPattern" width="20" height="20" patternUnits="userSpaceOnUse"><circle cx="1" cy="1" r="1" fill="gray"></circle></pattern></defs><rect fill="url(#dottedPattern)" x="-348.4939985932408" y="-17.65146135906707" width="100%" height="100%" class="cursor-move"></rect></g><g id="zone"><svg x="820" y="800" width="120.94878027910801" height="120.98108130518187"><rect fill="#e8f2f7" width="120.94878027910801" height="120.98108130518187" stroke-width="2" stroke="transparent" stroke-dasharray="10"></rect><text class="text-xs select-none" x="0" y="10">PrivateSubnet</text></svg><svg x="400" y="340" width="118.29101392455323" height="113.81839637025087"><rect fill="#D6F0B6" width="118.29101392455323" height="113.81839637025087" stroke-width="2" stroke="transparent" stroke-dasharray="10"></rect><text class="text-xs select-none" x="0" y="10">PublicSubnet</text></svg><svg x="820" y="340" width="122.04101392455345" height="118.81839637025087"><rect fill="#D6F0B6" width="122.04101392455345" height="118.81839637025087" stroke-width="2" stroke="transparent" stroke-dasharray="10"></rect><text class="text-xs select-none" x="0" y="10">PublicSubnet</text></svg><svg x="400" y="800" width="120.791013924553" height="120.0683963702511"><rect fill="#e8f2f7" width="120.791013924553" height="120.0683963702511" stroke-width="2" stroke="transparent" stroke-dasharray="10"></rect><text class="text-xs select-none" x="0" y="10">PrivateSubnet</text></svg><svg x="400" y="560" width="118.291013924553" height="121.31839637025087"><rect fill="#e8f2f7" width="118.291013924553" height="121.31839637025087" stroke-width="2" stroke="transparent" stroke-dasharray="10"></rect><text class="text-xs select-none" x="0" y="10">PrivateSubnet</text></svg><svg x="820" y="560" width="120.791013924553" height="121.31839637025087"><rect fill="#e8f2f7" width="120.791013924553" height="121.31839637025087" stroke-width="2" stroke="transparent" stroke-dasharray="10"></rect><text class="text-xs select-none" x="0" y="10">PrivateSubnet</text></svg><svg x="400" y="1020" width="119.541013924553" height="118.8183963702511"><rect fill="#e8f2f7" width="119.541013924553" height="118.8183963702511" stroke-width="2" stroke="transparent" stroke-dasharray="10"></rect><text class="text-xs select-none" x="0" y="10">PrivateSubnet</text></svg><svg x="820" y="1020" width="120.79101392455323" height="120.0683963702511"><rect fill="#e8f2f7" width="120.79101392455323" height="120.0683963702511" stroke-width="2" stroke="transparent" stroke-dasharray="10"></rect><text class="text-xs select-none" x="0" y="10">PrivateSubnet</text></svg><svg x="380" y="300" width="159.541013924553" height="881.3183963702511"><rect fill="transparent" width="159.541013924553" height="881.3183963702511" stroke-width="2" stroke="#000000" stroke-dasharray="10"></rect><text class="text-xs select-none" x="0" y="10">AvailableZone</text></svg><svg x="800" y="300" width="162.04101392455323" height="883.8183963702511"><rect fill="transparent" width="162.04101392455323" height="883.8183963702511" stroke-width="2" stroke="#000000" stroke-dasharray="10"></rect><text class="text-xs select-none" x="0" y="10">AvailableZone</text></svg><svg x="80" y="287.5360355629657" width="904.4247266779087" height="904.4048107082647"><rect fill="transparent" width="904.4247266779087" height="904.4048107082647" stroke-width="2" stroke="#568837" stroke-dasharray="10"></rect><text class="text-xs select-none" x="0" y="10">VPC</text></svg></g><g id="lines"><line id="be0a69d0-2222-11ee-8d04-77642426bfb5" x1="500" y1="860" x2="640" y2="740" stroke-width="2" stroke="black"></line><line id="bf16d0c0-2222-11ee-8d04-77642426bfb5" x1="840" y1="860" x2="720" y2="740" stroke-width="2" stroke="black"></line><line id="c25c10b0-2222-11ee-8d04-77642426bfb5" x1="500" y1="620" x2="640" y2="740" stroke-width="2" stroke="black"></line><line id="c370b500-2222-11ee-8d04-77642426bfb5" x1="840" y1="620" x2="720" y2="740" stroke-width="2" stroke="black"></line><line id="c96b9f10-2222-11ee-8d04-77642426bfb5" x1="460" y1="900" x2="460" y2="1040" stroke-width="2" stroke="black"></line><line id="cc13b4a0-2222-11ee-8d04-77642426bfb5" x1="840" y1="860" x2="500" y2="1080" stroke-width="2" stroke="black"></line><line id="cf03a8a0-2222-11ee-8d04-77642426bfb5" x1="500" y1="1080" x2="840" y2="1080" stroke-width="2" stroke="black"></line><line id="d07ba2a0-2222-11ee-8d04-77642426bfb5" x1="420" y1="1080" x2="180" y2="1020" stroke-width="2" stroke="black"></line><line id="d2f702e0-2222-11ee-8d04-77642426bfb5" x1="420" y1="860" x2="180" y2="1020" stroke-width="2" stroke="black"></line><line id="d73fa910-2222-11ee-8d04-77642426bfb5" x1="460" y1="580" x2="180" y2="280" stroke-width="2" stroke="black"></line><line id="d97d15f0-2222-11ee-8d04-77642426bfb5" x1="640" y1="500" x2="500" y2="620" stroke-width="2" stroke="black"></line><line id="dab547d0-2222-11ee-8d04-77642426bfb5" x1="720" y1="500" x2="840" y2="620" stroke-width="2" stroke="black"></line><line id="dd0c7e40-2222-11ee-8d04-77642426bfb5" x1="540" y1="280" x2="680" y2="460" stroke-width="2" stroke="black"></line><line id="debd1470-2222-11ee-8d04-77642426bfb5" x1="800" y1="280" x2="680" y2="460" stroke-width="2" stroke="black"></line><line id="e11d2480-2222-11ee-8d04-77642426bfb5" x1="320" y1="160" x2="500" y2="240" stroke-width="2" stroke="black"></line><line id="e2e22d10-2222-11ee-8d04-77642426bfb5" x1="680" y1="140" x2="800" y2="200" stroke-width="2" stroke="black"></line><line id="e55a0ae0-2222-11ee-8d04-77642426bfb5" x1="320" y1="160" x2="640" y2="100" stroke-width="2" stroke="black"></line><line id="ec67c480-2222-11ee-8d04-77642426bfb5" x1="420" y1="860" x2="180" y2="800" stroke-width="2" stroke="black"></line></g><g id="services"><g><svg cursor="pointer" x="420" y="1040"><svg xmlns="http://www.w3.org/2000/svg" width="80" height="80"><g fill="none" fill-rule="evenodd"><path fill="#434ec7" d="M0 0h80v80H0z"></path><path fill="#FFF" d="m15.414 14 9.293 9.293-1.414 1.414L14 15.414V23h-2V13a1 1 0 0 1 1-1h10v2h-7.586ZM68 13v10h-2v-7.586l-9.293 9.293-1.414-1.414L64.586 14H57v-2h10a1 1 0 0 1 1 1Zm-2 44h2v10a1 1 0 0 1-1 1H57v-2h7.586l-9.293-9.293 1.414-1.414L66 64.586V57Zm-.5-17.787c0-3.319-3.832-6.598-10.25-8.771l.641-1.894C63.268 31.045 67.5 34.932 67.5 39.213c0 4.282-4.232 8.17-11.61 10.666l-.641-1.895c6.419-2.172 10.251-5.45 10.251-8.771Zm-50.944 0c0 3.18 3.587 6.372 9.596 8.54l-.679 1.881c-6.938-2.503-10.917-6.301-10.917-10.421 0-4.119 3.979-7.917 10.917-10.421l.679 1.881c-6.009 2.169-9.596 5.361-9.596 8.54Zm10.151 17.494L15.414 66H23v2H13a1 1 0 0 1-1-1V57h2v7.586l9.293-9.293 1.414 1.414ZM40 31.286c-7.146 0-11-1.846-11-2.6 0-.755 3.854-2.6 11-2.6 7.145 0 11 1.845 11 2.6 0 .754-3.855 2.6-11 2.6Zm.029 7.745C33.187 39.031 29 37.162 29 36.145v-4.861c2.463 1.359 6.832 2.002 11 2.002s8.537-.643 11-2.002v4.861c0 1.018-4.165 2.886-10.971 2.886Zm0 7.636C33.187 46.667 29 44.798 29 43.781v-4.919c2.431 1.429 6.742 2.169 11.029 2.169 4.263 0 8.549-.739 10.971-2.164v4.914c0 1.018-4.165 2.886-10.971 2.886ZM40 53.518c-7.117 0-11-1.913-11-2.896v-4.124c2.431 1.429 6.742 2.169 11.029 2.169 4.263 0 8.549-.738 10.971-2.164v4.119c0 .983-3.883 2.896-11 2.896Zm0-29.432c-6.261 0-13 1.439-13 4.6v21.936c0 3.214 6.54 4.896 13 4.896s13-1.682 13-4.896V28.686c0-3.161-6.739-4.6-13-4.6Z"></path></g></svg></svg></g><g><svg cursor="pointer" x="840" y="1040"><svg xmlns="http://www.w3.org/2000/svg" width="80" height="80"><g fill="none" fill-rule="evenodd"><path fill="#434ec7" d="M0 0h80v80H0z"></path><path fill="#FFF" d="m15.414 14 9.293 9.293-1.414 1.414L14 15.414V23h-2V13a1 1 0 0 1 1-1h10v2h-7.586ZM68 13v10h-2v-7.586l-9.293 9.293-1.414-1.414L64.586 14H57v-2h10a1 1 0 0 1 1 1Zm-2 44h2v10a1 1 0 0 1-1 1H57v-2h7.586l-9.293-9.293 1.414-1.414L66 64.586V57Zm-.5-17.787c0-3.319-3.832-6.598-10.25-8.771l.641-1.894C63.268 31.045 67.5 34.932 67.5 39.213c0 4.282-4.232 8.17-11.61 10.666l-.641-1.895c6.419-2.172 10.251-5.45 10.251-8.771Zm-50.944 0c0 3.18 3.587 6.372 9.596 8.54l-.679 1.881c-6.938-2.503-10.917-6.301-10.917-10.421 0-4.119 3.979-7.917 10.917-10.421l.679 1.881c-6.009 2.169-9.596 5.361-9.596 8.54Zm10.151 17.494L15.414 66H23v2H13a1 1 0 0 1-1-1V57h2v7.586l9.293-9.293 1.414 1.414ZM40 31.286c-7.146 0-11-1.846-11-2.6 0-.755 3.854-2.6 11-2.6 7.145 0 11 1.845 11 2.6 0 .754-3.855 2.6-11 2.6Zm.029 7.745C33.187 39.031 29 37.162 29 36.145v-4.861c2.463 1.359 6.832 2.002 11 2.002s8.537-.643 11-2.002v4.861c0 1.018-4.165 2.886-10.971 2.886Zm0 7.636C33.187 46.667 29 44.798 29 43.781v-4.919c2.431 1.429 6.742 2.169 11.029 2.169 4.263 0 8.549-.739 10.971-2.164v4.914c0 1.018-4.165 2.886-10.971 2.886ZM40 53.518c-7.117 0-11-1.913-11-2.896v-4.124c2.431 1.429 6.742 2.169 11.029 2.169 4.263 0 8.549-.738 10.971-2.164v4.119c0 .983-3.883 2.896-11 2.896Zm0-29.432c-6.261 0-13 1.439-13 4.6v21.936c0 3.214 6.54 4.896 13 4.896s13-1.682 13-4.896V28.686c0-3.161-6.739-4.6-13-4.6Z"></path></g></svg></svg></g><g><svg cursor="pointer" x="100" y="980"><svg xmlns="http://www.w3.org/2000/svg" width="80" height="80"><g fill="none" fill-rule="evenodd"><path fill="#434ec7" d="M0 0h80v80H0z"></path><path fill="#FFF" d="M51 61.555v-5.852c-2.534 1.637-7.096 2.41-11.444 2.41-4.74 0-8.435-.827-10.556-2.245v5.687C29 63.25 32.948 65 39.556 65 46.3 65 51 63.185 51 61.555ZM39.556 49.22c-4.74 0-8.435-.826-10.556-2.244v5.71c.031 1.688 3.973 3.427 10.556 3.427 6.723 0 11.413-1.804 11.444-3.43V46.81c-2.534 1.638-7.096 2.41-11.444 2.41ZM51 43.79v-6.76c-2.534 1.636-7.096 2.41-11.444 2.41-4.74 0-8.435-.827-10.556-2.245v6.6c.031 1.687 3.973 3.425 10.556 3.425 6.723 0 11.413-1.804 11.444-3.43Zm-22.003-9.797.001.009H29v.01c.031 1.688 3.973 3.427 10.556 3.427 7.342 0 11.413-2.022 11.444-3.43v-.007h.002l.001-.01c0-1.407-4.076-3.445-11.447-3.445-6.61 0-10.559 1.752-10.559 3.446ZM53 34.018v9.756h.003c0 .009-.003.016-.003.025v8.868h.003c0 .009-.003.016-.003.025v8.863C53 65.297 46.031 67 39.556 67 31.929 67 27 64.863 27 61.555v-8.857c0-.011-.003-.02-.003-.031H27v-8.862c0-.01-.003-.02-.003-.031H27v-9.75c0-.011-.003-.02-.003-.031 0-3.308 4.93-5.447 12.559-5.447 6.476 0 13.447 1.705 13.447 5.447 0 .009-.003.016-.003.025ZM67 21.12a1 1 0 0 0 1-1V15A1 1 0 0 0 67 14H13a1 1 0 0 0-1 1v5.12a1 1 0 0 0 1 1 2.21 2.21 0 0 1 2.214 2.2A2.21 2.21 0 0 1 13 25.522a1 1 0 0 0-1 1v20.482a1 1 0 0 0 1 1h10v-2h-5v-3h5v-2h-6a1 1 0 0 0-1 1v4h-2V27.401a4.21 4.21 0 0 0 3.214-4.08A4.21 4.21 0 0 0 14 19.239V16h52v3.24a4.21 4.21 0 0 0-3.214 4.08A4.21 4.21 0 0 0 66 27.402v18.602h-2v-4a1 1 0 0 0-1-1h-6v2h5v3h-5v2h10a1 1 0 0 0 1-1V26.521a1 1 0 0 0-1-1 2.21 2.21 0 0 1-2.214-2.2c0-1.213.993-2.2 2.214-2.2ZM28 28v-8a1 1 0 0 0-1-1h-6a1 1 0 0 0-1 1v17.001a1 1 0 0 0 1 1h3v-2h-2V21.001h4v7h2Zm30 8.001h-1v2h2a1 1 0 0 0 1-1V20.001a1 1 0 0 0-1-1h-6a1 1 0 0 0-1 1v8h2v-7h4v15.001Zm-8-9V20a1 1 0 0 0-1-1h-7a1 1 0 0 0-1 1v6h2v-5h5v6h2Zm-13-1V21h-5v6h-2v-7a1 1 0 0 1 1-1h7a1 1 0 0 1 1 1v6h-2Z"></path></g></svg></svg></g><g><svg cursor="pointer" x="420" y="820"><svg xmlns="http://www.w3.org/2000/svg" width="80" height="80"><g fill="none" fill-rule="evenodd"><path fill="#ED7100" d="M0 0h80v80H0z"></path><path fill="#FFF" d="M27 53h25V28H27v25Zm27-25h4v2h-4v4h4v2h-4v3h4v2h-4v4h4v2h-4v4h4v2h-4v.136A1.866 1.866 0 0 1 52.136 55H52v4h-2v-4h-4v4h-2v-4h-3v4h-2v-4h-4v4h-2v-4h-4v4h-2v-4h-.136A1.866 1.866 0 0 1 25 53.136V53h-3v-2h3v-4h-3v-2h3v-4h-3v-2h3v-3h-3v-2h3v-4h-3v-2h3v-.136c0-1.028.836-1.864 1.864-1.864H27v-4h2v4h4v-4h2v4h4v-4h2v4h3v-4h2v4h4v-4h2v4h.136c1.028 0 1.864.836 1.864 1.864V28ZM41 65.876a.125.125 0 0 1-.124.124H14.124a.125.125 0 0 1-.124-.124V39.124c0-.068.056-.124.124-.124H20v-2h-5.876A2.127 2.127 0 0 0 12 39.124v26.752c0 1.171.953 2.124 2.124 2.124h26.752A2.127 2.127 0 0 0 43 65.876V61h-2v4.876Zm27-51.752v26.752A2.127 2.127 0 0 1 65.876 43H60v-2h5.876a.125.125 0 0 0 .124-.124V14.124a.125.125 0 0 0-.124-.124H39.124a.125.125 0 0 0-.124.124V20h-2v-5.876c0-1.171.953-2.124 2.124-2.124h26.752c1.171 0 2.124.953 2.124 2.124Z"></path></g></svg></svg></g><g><svg cursor="pointer" x="840" y="820"><svg xmlns="http://www.w3.org/2000/svg" width="80" height="80"><g fill="none" fill-rule="evenodd"><path fill="#ED7100" d="M0 0h80v80H0z"></path><path fill="#FFF" d="M27 53h25V28H27v25Zm27-25h4v2h-4v4h4v2h-4v3h4v2h-4v4h4v2h-4v4h4v2h-4v.136A1.866 1.866 0 0 1 52.136 55H52v4h-2v-4h-4v4h-2v-4h-3v4h-2v-4h-4v4h-2v-4h-4v4h-2v-4h-.136A1.866 1.866 0 0 1 25 53.136V53h-3v-2h3v-4h-3v-2h3v-4h-3v-2h3v-3h-3v-2h3v-4h-3v-2h3v-.136c0-1.028.836-1.864 1.864-1.864H27v-4h2v4h4v-4h2v4h4v-4h2v4h3v-4h2v4h4v-4h2v4h.136c1.028 0 1.864.836 1.864 1.864V28ZM41 65.876a.125.125 0 0 1-.124.124H14.124a.125.125 0 0 1-.124-.124V39.124c0-.068.056-.124.124-.124H20v-2h-5.876A2.127 2.127 0 0 0 12 39.124v26.752c0 1.171.953 2.124 2.124 2.124h26.752A2.127 2.127 0 0 0 43 65.876V61h-2v4.876Zm27-51.752v26.752A2.127 2.127 0 0 1 65.876 43H60v-2h5.876a.125.125 0 0 0 .124-.124V14.124a.125.125 0 0 0-.124-.124H39.124a.125.125 0 0 0-.124.124V20h-2v-5.876c0-1.171.953-2.124 2.124-2.124h26.752c1.171 0 2.124.953 2.124 2.124Z"></path></g></svg></svg></g><g><svg cursor="pointer" x="640" y="700"><svg xmlns="http://www.w3.org/2000/svg" width="80" height="80"><g fill="none" fill-rule="evenodd"><path fill="#8C4FFF" d="M0 0h80v80H0z"></path><path fill="#FFF" d="M30 53c-7.168 0-13-5.832-13-13s5.832-13 13-13 13 5.832 13 13-5.832 13-13 13m30 6c0 2.206-1.794 4-4 4s-4-1.794-4-4 1.794-4 4-4 4 1.794 4 4m-4-42c2.206 0 4 1.794 4 4s-1.794 4-4 4-4-1.794-4-4 1.794-4 4-4m3 19c2.206 0 4 1.794 4 4s-1.794 4-4 4-4-1.794-4-4 1.794-4 4-4m-14.051 5h8.141c.478 2.833 2.943 5 5.91 5 3.309 0 6-2.691 6-6s-2.691-6-6-6c-2.967 0-5.432 2.167-5.91 5h-8.141a14.851 14.851 0 0 0-1.377-5.346l8.874-7.831A5.96 5.96 0 0 0 56 27c3.309 0 6-2.691 6-6s-2.691-6-6-6-6 2.691-6 6c0 1.256.389 2.421 1.051 3.386l-8.47 7.473C39.904 27.738 35.271 25 30 25c-8.271 0-15 6.729-15 15s6.729 15 15 15c5.271 0 9.904-2.738 12.581-6.859l8.47 7.473A5.964 5.964 0 0 0 50 59c0 3.309 2.691 6 6 6s6-2.691 6-6-2.691-6-6-6a5.96 5.96 0 0 0-3.554 1.177l-8.874-7.831A14.851 14.851 0 0 0 44.949 41"></path></g></svg></svg></g><g><svg cursor="pointer" x="420" y="580"><svg xmlns="http://www.w3.org/2000/svg" width="80" height="80"><g fill="none" fill-rule="evenodd"><path fill="#ED7100" d="M0 0h80v80H0z"></path><path fill="#FFF" d="M27 53h25V28H27v25Zm27-25h4v2h-4v4h4v2h-4v3h4v2h-4v4h4v2h-4v4h4v2h-4v.136A1.866 1.866 0 0 1 52.136 55H52v4h-2v-4h-4v4h-2v-4h-3v4h-2v-4h-4v4h-2v-4h-4v4h-2v-4h-.136A1.866 1.866 0 0 1 25 53.136V53h-3v-2h3v-4h-3v-2h3v-4h-3v-2h3v-3h-3v-2h3v-4h-3v-2h3v-.136c0-1.028.836-1.864 1.864-1.864H27v-4h2v4h4v-4h2v4h4v-4h2v4h3v-4h2v4h4v-4h2v4h.136c1.028 0 1.864.836 1.864 1.864V28ZM41 65.876a.125.125 0 0 1-.124.124H14.124a.125.125 0 0 1-.124-.124V39.124c0-.068.056-.124.124-.124H20v-2h-5.876A2.127 2.127 0 0 0 12 39.124v26.752c0 1.171.953 2.124 2.124 2.124h26.752A2.127 2.127 0 0 0 43 65.876V61h-2v4.876Zm27-51.752v26.752A2.127 2.127 0 0 1 65.876 43H60v-2h5.876a.125.125 0 0 0 .124-.124V14.124a.125.125 0 0 0-.124-.124H39.124a.125.125 0 0 0-.124.124V20h-2v-5.876c0-1.171.953-2.124 2.124-2.124h26.752c1.171 0 2.124.953 2.124 2.124Z"></path></g></svg></svg></g><g><svg cursor="pointer" x="840" y="580"><svg xmlns="http://www.w3.org/2000/svg" width="80" height="80"><g fill="none" fill-rule="evenodd"><path fill="#ED7100" d="M0 0h80v80H0z"></path><path fill="#FFF" d="M27 53h25V28H27v25Zm27-25h4v2h-4v4h4v2h-4v3h4v2h-4v4h4v2h-4v4h4v2h-4v.136A1.866 1.866 0 0 1 52.136 55H52v4h-2v-4h-4v4h-2v-4h-3v4h-2v-4h-4v4h-2v-4h-4v4h-2v-4h-.136A1.866 1.866 0 0 1 25 53.136V53h-3v-2h3v-4h-3v-2h3v-4h-3v-2h3v-3h-3v-2h3v-4h-3v-2h3v-.136c0-1.028.836-1.864 1.864-1.864H27v-4h2v4h4v-4h2v4h4v-4h2v4h3v-4h2v4h4v-4h2v4h.136c1.028 0 1.864.836 1.864 1.864V28ZM41 65.876a.125.125 0 0 1-.124.124H14.124a.125.125 0 0 1-.124-.124V39.124c0-.068.056-.124.124-.124H20v-2h-5.876A2.127 2.127 0 0 0 12 39.124v26.752c0 1.171.953 2.124 2.124 2.124h26.752A2.127 2.127 0 0 0 43 65.876V61h-2v4.876Zm27-51.752v26.752A2.127 2.127 0 0 1 65.876 43H60v-2h5.876a.125.125 0 0 0 .124-.124V14.124a.125.125 0 0 0-.124-.124H39.124a.125.125 0 0 0-.124.124V20h-2v-5.876c0-1.171.953-2.124 2.124-2.124h26.752c1.171 0 2.124.953 2.124 2.124Z"></path></g></svg></svg></g><g><svg cursor="pointer" x="640" y="580"><svg xmlns="http://www.w3.org/2000/svg" width="80" height="80"><g fill="none" fill-rule="evenodd"><path fill="#ED7100" d="M0 0h80v80H0z"></path><path fill="#FFF" d="M68 39.005H56.632l5.579-5.594-1.404-1.408-7.703 7.724 7.703 7.723 1.404-1.407-5.034-5.048H68v-1.99ZM18.056 33.41l5.579 5.594H13v1.99h10.09l-5.034 5.048 1.405 1.407 7.701-7.723-7.701-7.724-1.405 1.408ZM33.55 48.959h14.89V34.027h-14.89V48.96Zm16.725-15.927h2.136v1.99h-1.985v2.987h1.985V40h-1.985v2.986h1.985v1.991h-1.985v2.987h1.985v1.99h-2.136a1.684 1.684 0 0 1-.842.846v2.141H47.45v-1.99h-2.978v1.99h-1.986v-1.99h-2.978v1.99h-1.985v-1.99h-2.978v1.99h-1.986V50.8a1.69 1.69 0 0 1-.842-.845H29.58v-1.991h1.986v-2.987H29.58v-1.99h1.986V40H29.58v-1.991h1.986v-2.986H29.58v-1.991h2.136a1.69 1.69 0 0 1 .842-.846v-2.14h1.986v1.99h2.978v-1.99h1.985v1.99h2.978v-1.99h1.986v1.99h2.978v-1.99h1.985v2.14c.375.17.674.471.842.846Zm-8.783 31.157V53.937h-1.986v10.252l-5.306-5.32-1.403 1.407L40.5 68l7.702-7.724-1.403-1.408-5.306 5.321ZM34.2 21.132l-1.403-1.408L40.5 12l7.702 7.724-1.403 1.408-5.306-5.321v11.126h-1.986V15.811l-5.306 5.32Z"></path></g></svg></svg></g><g><svg cursor="pointer" x="640" y="820"><svg xmlns="http://www.w3.org/2000/svg" width="80" height="80"><g fill="none" fill-rule="evenodd"><path fill="#ED7100" d="M0 0h80v80H0z"></path><path fill="#FFF" d="M68 39.005H56.632l5.579-5.594-1.404-1.408-7.703 7.724 7.703 7.723 1.404-1.407-5.034-5.048H68v-1.99ZM18.056 33.41l5.579 5.594H13v1.99h10.09l-5.034 5.048 1.405 1.407 7.701-7.723-7.701-7.724-1.405 1.408ZM33.55 48.959h14.89V34.027h-14.89V48.96Zm16.725-15.927h2.136v1.99h-1.985v2.987h1.985V40h-1.985v2.986h1.985v1.991h-1.985v2.987h1.985v1.99h-2.136a1.684 1.684 0 0 1-.842.846v2.141H47.45v-1.99h-2.978v1.99h-1.986v-1.99h-2.978v1.99h-1.985v-1.99h-2.978v1.99h-1.986V50.8a1.69 1.69 0 0 1-.842-.845H29.58v-1.991h1.986v-2.987H29.58v-1.99h1.986V40H29.58v-1.991h1.986v-2.986H29.58v-1.991h2.136a1.69 1.69 0 0 1 .842-.846v-2.14h1.986v1.99h2.978v-1.99h1.985v1.99h2.978v-1.99h1.986v1.99h2.978v-1.99h1.985v2.14c.375.17.674.471.842.846Zm-8.783 31.157V53.937h-1.986v10.252l-5.306-5.32-1.403 1.407L40.5 68l7.702-7.724-1.403-1.408-5.306 5.321ZM34.2 21.132l-1.403-1.408L40.5 12l7.702 7.724-1.403 1.408-5.306-5.321v11.126h-1.986V15.811l-5.306 5.32Z"></path></g></svg></svg></g><g><svg cursor="pointer" x="420" y="360"><svg xmlns="http://www.w3.org/2000/svg" width="80" height="80"><path d="M22.71 59.867v-4.73l2.954 2.367Zm-.624-9.5a1.67 1.67 0 0 0-2.71 1.3l-.001 11.669c0 .64.371 1.223.945 1.504a1.674 1.674 0 0 0 1.766-.203l7.289-5.832a1.665 1.665 0 0 0 0-2.602Zm40-5.64V38.19l3.27 3.27Zm6.805-4.446-7.293-7.293a1.666 1.666 0 0 0-2.844 1.18v5.625H46.043V23.961c0-.922-.746-1.668-1.668-1.668H31.551v3.332h11.16v14.168H31.25v3.332h11.46v14.168H31.55v3.336h12.825c.922 0 1.668-.746 1.668-1.668V43.125h12.71v5.629c0 .672.407 1.281 1.028 1.539a1.665 1.665 0 0 0 1.816-.363l7.294-7.293a1.67 1.67 0 0 0 0-2.356Zm-46.18 3.547v-4.734l2.953 2.367Zm-.625-9.504a1.668 1.668 0 0 0-2.711 1.301v11.668a1.671 1.671 0 0 0 2.71 1.305l7.29-5.836a1.671 1.671 0 0 0 0-2.606Zm.625-8v-4.73l2.953 2.367Zm-.625-9.5a1.67 1.67 0 0 0-2.71 1.3l-.001 11.669c0 .64.371 1.223.945 1.5.23.113.477.168.723.168.371 0 .738-.125 1.043-.367l7.289-5.832a1.671 1.671 0 0 0 0-2.606ZM40 73.34C21.621 73.34 6.664 58.383 6.664 40 6.664 21.621 21.621 6.668 40 6.668c18.383 0 33.336 14.953 33.336 33.332 0 18.383-14.953 33.34-33.336 33.34Zm0-70.008C19.781 3.332 3.332 19.782 3.332 40c0 20.223 16.45 36.672 36.668 36.672 20.223 0 36.672-16.45 36.672-36.672 0-20.219-16.45-36.668-36.672-36.668Zm0 0" style="stroke: none; fill-rule: evenodd; fill: rgb(140, 79, 255); fill-opacity: 1;"></path></svg></svg></g><g><svg cursor="pointer" x="840" y="360"><svg xmlns="http://www.w3.org/2000/svg" width="80" height="80"><path d="M22.71 59.867v-4.73l2.954 2.367Zm-.624-9.5a1.67 1.67 0 0 0-2.71 1.3l-.001 11.669c0 .64.371 1.223.945 1.504a1.674 1.674 0 0 0 1.766-.203l7.289-5.832a1.665 1.665 0 0 0 0-2.602Zm40-5.64V38.19l3.27 3.27Zm6.805-4.446-7.293-7.293a1.666 1.666 0 0 0-2.844 1.18v5.625H46.043V23.961c0-.922-.746-1.668-1.668-1.668H31.551v3.332h11.16v14.168H31.25v3.332h11.46v14.168H31.55v3.336h12.825c.922 0 1.668-.746 1.668-1.668V43.125h12.71v5.629c0 .672.407 1.281 1.028 1.539a1.665 1.665 0 0 0 1.816-.363l7.294-7.293a1.67 1.67 0 0 0 0-2.356Zm-46.18 3.547v-4.734l2.953 2.367Zm-.625-9.504a1.668 1.668 0 0 0-2.711 1.301v11.668a1.671 1.671 0 0 0 2.71 1.305l7.29-5.836a1.671 1.671 0 0 0 0-2.606Zm.625-8v-4.73l2.953 2.367Zm-.625-9.5a1.67 1.67 0 0 0-2.71 1.3l-.001 11.669c0 .64.371 1.223.945 1.5.23.113.477.168.723.168.371 0 .738-.125 1.043-.367l7.289-5.832a1.671 1.671 0 0 0 0-2.606ZM40 73.34C21.621 73.34 6.664 58.383 6.664 40 6.664 21.621 21.621 6.668 40 6.668c18.383 0 33.336 14.953 33.336 33.332 0 18.383-14.953 33.34-33.336 33.34Zm0-70.008C19.781 3.332 3.332 19.782 3.332 40c0 20.223 16.45 36.672 36.668 36.672 20.223 0 36.672-16.45 36.672-36.672 0-20.219-16.45-36.668-36.672-36.668Zm0 0" style="stroke: none; fill-rule: evenodd; fill: rgb(140, 79, 255); fill-opacity: 1;"></path></svg></svg></g><g><svg cursor="pointer" x="760" y="200"><svg xmlns="http://www.w3.org/2000/svg" width="80" height="80"><g fill="none" fill-rule="evenodd"><path fill="#DD344C" d="M0 0h80v80H0z"></path><path fill="#FFF" d="M14.395 41H12v-2h2.4c.2-5.059 1.84-9.872 4.809-13.975l1.62 1.173c-2.72 3.759-4.23 8.168-4.43 12.802H19v2h-2.604c.186 4.662 1.698 9.097 4.433 12.876l-1.62 1.173c-2.984-4.123-4.625-8.964-4.813-14.049ZM55.01 60.828c-4.111 2.977-8.938 4.617-14.01 4.811V68h-2v-2.361c-5.072-.194-9.9-1.834-14.012-4.811l1.173-1.62c3.77 2.729 8.192 4.239 12.84 4.431V61h2v2.639c4.648-.193 9.069-1.703 12.837-4.431l1.172 1.62ZM24.987 19.246c4.113-2.977 8.94-4.617 14.012-4.81V12h2v2.436c5.072.193 9.898 1.834 14.01 4.81l-1.172 1.62c-3.769-2.728-8.19-4.238-12.838-4.43V19h-2v-2.564c-4.648.191-9.07 1.702-12.84 4.43l-1.172-1.62ZM68 39v2h-2.398c-.187 5.085-1.829 9.926-4.812 14.049l-1.622-1.173c2.736-3.779 4.248-8.214 4.433-12.876H61v-2h2.6c-.2-4.634-1.71-9.043-4.43-12.802l1.621-1.173C63.758 29.128 65.398 33.941 65.6 39h2.4ZM54.97 23.65l7.84-7.84 1.414 1.414-7.84 7.84-1.413-1.414ZM25.026 56.424l-7.84 7.84-1.415-1.414 7.84-7.84 1.415 1.414Zm2.226-27.757-14.84-14.84 1.413-1.414 14.841 14.84-1.415 1.414Zm25.454 22.626 14.88 14.88-1.415 1.414-14.88-14.879 1.416-1.415ZM31.663 40.735c.076-.133.156-.267.241-.401 1.681-2.641 1.2-6.245.665-8.422 1.441.947 2.74 2.904 3.183 3.726a.987.987 0 0 0 .96.523c.394-.031.733-.291.865-.664 1.49-4.23.733-7.41-.317-9.471a7.215 7.215 0 0 1 2.912 3.166c1.416 2.942 1.1 6.969-.825 10.508-2.629 4.836-2.102 9.906-1.504 12.634-1.5-.647-2.837-1.378-3.99-2.182-3.026-2.11-3.99-6.245-2.19-9.417Zm13.43-.337a1.002 1.002 0 0 0 1.615.938c.081-.065 1.721-1.419 2.515-4.694.957 1.392 1.959 4.201.627 9.361-1.319 5.105-7.57 6.541-9.802 6.894-.538-1.933-1.632-7.298 1.057-12.242 1.909-3.51 2.415-7.479 1.459-10.754 1.81 2.126 3.337 5.472 2.53 10.497Zm-15.172-.648c-2.302 4.06-1.078 9.349 2.788 12.043 1.75 1.22 3.87 2.279 6.3 3.148.111.04.224.059.337.059.022 0 .04-.011.06-.012v.009c.425-.033 10.42-.901 12.38-8.494 2.521-9.766-2.53-12.663-2.746-12.782a1 1 0 0 0-1.475.774 12.893 12.893 0 0 1-.316 1.807c-.692-7.668-6.77-10.788-8-11.343-1.26-.965-2.792-1.628-4.568-1.943a1.002 1.002 0 0 0-.815 1.752c.15.127 3.267 2.829 2.377 7.971-1.16-1.523-3.009-3.359-5.183-3.359a1.001 1.001 0 0 0-.933 1.361c.022.054 2.06 5.425.09 8.52a12.46 12.46 0 0 0-.295.489Z"></path></g></svg></svg></g><g><svg cursor="pointer" x="500" y="200"><svg xmlns="http://www.w3.org/2000/svg" width="80" height="80"><g fill="none" fill-rule="evenodd"><path fill="#8C4FFF" d="M0 0h80v80H0z"></path><path fill="#FFF" d="M55.122 52.123c0-1.654-1.346-3-3-3s-3 1.346-3 3 1.346 3 3 3 3-1.346 3-3Zm2 0c0 2.757-2.243 5-5 5s-5-2.243-5-5 2.243-5 5-5 5 2.243 5 5Zm-26.73-14.431c0-1.654-1.346-3-3-3-1.655 0-3 1.346-3 3s1.345 3 3 3c1.654 0 3-1.346 3-3Zm2 0c0 2.757-2.244 5-5 5-2.757 0-5-2.243-5-5s2.243-5 5-5c2.756 0 5 2.243 5 5Zm7.338-15.685c0 1.654 1.346 3 3 3 1.655 0 3-1.346 3-3 0-1.655-1.345-3-3-3-1.654 0-3 1.345-3 3Zm-2 0c0-2.757 2.244-5 5-5 2.757 0 5 2.243 5 5s-2.243 5-5 5c-2.756 0-5-2.243-5-5ZM66 40c0-9.273-4.972-17.852-12.988-22.491-1.437.29-2.827.687-4.561 1.314l-.68-1.881c.905-.326 1.715-.59 2.495-.816A25.948 25.948 0 0 0 40 14c-1.689 0-3.351.175-4.975.492a31.993 31.993 0 0 1 3.232 2.142l-1.209 1.593c-1.428-1.082-2.908-1.999-4.851-3.017-9.819 3.088-16.891 11.748-18.014 21.918a34.928 34.928 0 0 1 6.231-.698l.049 1.999c-2.3.057-4.276.301-6.436.776-.009.265-.027.533-.027.795a25.939 25.939 0 0 0 11.327 21.447c-1.253-3.731-1.877-7.257-1.877-10.701 0-1.964.338-3.577.695-5.284.083-.395.167-.797.249-1.214l1.963.387c-.084.424-.17.835-.254 1.238-.35 1.672-.653 3.116-.653 4.873 0 3.908.858 7.949 2.604 12.337A25.67 25.67 0 0 0 40 66c2.756 0 5.446-.44 8.012-1.286a33.503 33.503 0 0 0 2.378-6.015l1.921.557a35.683 35.683 0 0 1-1.602 4.421 25.395 25.395 0 0 0 4.574-2.672 36.221 36.221 0 0 0-1.124-2.506l1.789-.895c.348.696.667 1.408.972 2.124C62.705 54.775 66 47.66 66 40Zm2 0c0 8.727-3.966 16.799-10.879 22.149a27.46 27.46 0 0 1-5.532 3.323c-.833.378-1.681.728-2.553 1.022A27.516 27.516 0 0 1 40 68c-4.6 0-9.168-1.146-13.212-3.314A27.951 27.951 0 0 1 12 40c0-.686.018-1.208.059-1.691.681-11.684 8.697-21.797 19.942-25.143A27.668 27.668 0 0 1 40 12a27.87 27.87 0 0 1 13.684 3.579A28.026 28.026 0 0 1 68 40ZM37.314 25.463 36 23.956c-2.242 1.956-3.986 4.033-6.023 7.17l1.678 1.089c1.928-2.971 3.568-4.927 5.659-6.752Zm-3.039 12.964-.65 1.891c4.593 1.577 8.6 4.093 12.609 7.918l1.381-1.447c-4.226-4.031-8.465-6.688-13.34-8.362Zm13.371-11.759c3.752 5.722 5.865 12.003 6.279 18.67l-1.996.124c-.393-6.316-2.396-12.27-5.954-17.697l1.671-1.097Z"></path></g></svg></svg></g><g><svg cursor="pointer" x="240" y="120"><svg xmlns="http://www.w3.org/2000/svg" width="80" height="80"><g fill="none" fill-rule="evenodd"><path fill="#DD344C" d="M0 0h80v80H0z"></path><path fill="#FFF" d="M14.395 41H12v-2h2.4c.2-5.059 1.84-9.872 4.809-13.975l1.62 1.173c-2.72 3.759-4.23 8.168-4.43 12.802H19v2h-2.604c.186 4.662 1.698 9.097 4.433 12.876l-1.62 1.173c-2.984-4.123-4.625-8.964-4.813-14.049ZM55.01 60.828c-4.111 2.977-8.938 4.617-14.01 4.811V68h-2v-2.361c-5.072-.194-9.9-1.834-14.012-4.811l1.173-1.62c3.77 2.729 8.192 4.239 12.84 4.431V61h2v2.639c4.648-.193 9.069-1.703 12.837-4.431l1.172 1.62ZM24.987 19.246c4.113-2.977 8.94-4.617 14.012-4.81V12h2v2.436c5.072.193 9.898 1.834 14.01 4.81l-1.172 1.62c-3.769-2.728-8.19-4.238-12.838-4.43V19h-2v-2.564c-4.648.191-9.07 1.702-12.84 4.43l-1.172-1.62ZM68 39v2h-2.398c-.187 5.085-1.829 9.926-4.812 14.049l-1.622-1.173c2.736-3.779 4.248-8.214 4.433-12.876H61v-2h2.6c-.2-4.634-1.71-9.043-4.43-12.802l1.621-1.173C63.758 29.128 65.398 33.941 65.6 39h2.4ZM54.97 23.65l7.84-7.84 1.414 1.414-7.84 7.84-1.413-1.414ZM25.026 56.424l-7.84 7.84-1.415-1.414 7.84-7.84 1.415 1.414Zm2.226-27.757-14.84-14.84 1.413-1.414 14.841 14.84-1.415 1.414Zm25.454 22.626 14.88 14.88-1.415 1.414-14.88-14.879 1.416-1.415ZM31.663 40.735c.076-.133.156-.267.241-.401 1.681-2.641 1.2-6.245.665-8.422 1.441.947 2.74 2.904 3.183 3.726a.987.987 0 0 0 .96.523c.394-.031.733-.291.865-.664 1.49-4.23.733-7.41-.317-9.471a7.215 7.215 0 0 1 2.912 3.166c1.416 2.942 1.1 6.969-.825 10.508-2.629 4.836-2.102 9.906-1.504 12.634-1.5-.647-2.837-1.378-3.99-2.182-3.026-2.11-3.99-6.245-2.19-9.417Zm13.43-.337a1.002 1.002 0 0 0 1.615.938c.081-.065 1.721-1.419 2.515-4.694.957 1.392 1.959 4.201.627 9.361-1.319 5.105-7.57 6.541-9.802 6.894-.538-1.933-1.632-7.298 1.057-12.242 1.909-3.51 2.415-7.479 1.459-10.754 1.81 2.126 3.337 5.472 2.53 10.497Zm-15.172-.648c-2.302 4.06-1.078 9.349 2.788 12.043 1.75 1.22 3.87 2.279 6.3 3.148.111.04.224.059.337.059.022 0 .04-.011.06-.012v.009c.425-.033 10.42-.901 12.38-8.494 2.521-9.766-2.53-12.663-2.746-12.782a1 1 0 0 0-1.475.774 12.893 12.893 0 0 1-.316 1.807c-.692-7.668-6.77-10.788-8-11.343-1.26-.965-2.792-1.628-4.568-1.943a1.002 1.002 0 0 0-.815 1.752c.15.127 3.267 2.829 2.377 7.971-1.16-1.523-3.009-3.359-5.183-3.359a1.001 1.001 0 0 0-.933 1.361c.022.054 2.06 5.425.09 8.52a12.46 12.46 0 0 0-.295.489Z"></path></g></svg></svg></g><g><svg cursor="pointer" x="640" y="60"><svg xmlns="http://www.w3.org/2000/svg" width="80" height="80"><g fill="none" fill-rule="evenodd"><path fill="#8C4FFF" d="M0 0h80v80H0z"></path><path fill="#FFF" d="M48.692 40.68c.739.683 1.109 1.598 1.109 2.748 0 1.25-.45 2.248-1.349 2.995-.9.747-2.109 1.12-3.626 1.12-1.199 0-2.386-.256-3.56-.766v-1.532c1.391.46 2.577.69 3.56.69.97 0 1.716-.218 2.239-.65.523-.435.784-1.054.784-1.857 0-1.545-.975-2.317-2.928-2.317-.612 0-1.218.032-1.818.095v-1.263l4.02-4.384h-5.665v-1.57h7.789v1.513l-3.943 4.173a.961.961 0 0 1 .192-.019h.191c1.264 0 2.265.341 3.005 1.024m-11.118-.335c.777.728 1.166 1.729 1.166 3.005 0 1.251-.452 2.262-1.359 3.035-.906.772-2.098 1.158-3.578 1.158a8.82 8.82 0 0 1-3.655-.766v-1.532c1.416.46 2.628.69 3.636.69.97 0 1.713-.22 2.229-.66.517-.44.776-1.075.776-1.905 0-.907-.243-1.564-.728-1.972-.485-.408-1.276-.613-2.373-.613-.791 0-1.779.065-2.966.192v-1.264l.364-5.724h6.985v1.57h-5.378l-.249 3.886a10.743 10.743 0 0 1 1.894-.191c1.378 0 2.457.363 3.236 1.091m14.383 14.033c-4.854.872-9.105 2.849-11.957 4.46-2.853-1.611-7.104-3.588-11.957-4.46-1.366-.245-8.174-1.667-8.174-5.602 0-1.824.653-3.034 1.907-5.193 1.498-2.583 3.362-5.799 3.362-10.427 0-3.309-.867-6.48-2.579-9.441l.612-.752c2.536 1.267 5.176 1.91 7.86 1.91 3.28 0 6.294-.862 8.969-2.562 2.674 1.7 5.688 2.561 8.968 2.561 2.684 0 5.325-.642 7.861-1.91l.611.753c-1.712 2.96-2.579 6.132-2.579 9.44 0 4.63 1.864 7.845 3.365 10.432 1.251 2.155 1.904 3.365 1.904 5.189 0 3.935-6.808 5.357-8.173 5.602m4.904-21.222c0-3.159.891-6.186 2.646-8.998a.997.997 0 0 0-.073-1.162 476.12 476.12 0 0 1-1.567-1.929 1 1 0 0 0-1.261-.247c-2.463 1.361-5.032 2.052-7.638 2.052-3.144 0-5.891-.846-8.399-2.583a1 1 0 0 0-1.139 0c-2.508 1.737-5.255 2.583-8.399 2.583-2.606 0-5.175-.69-7.638-2.052a1 1 0 0 0-1.261.247 476.12 476.12 0 0 1-1.567 1.929.998.998 0 0 0-.073 1.162c1.756 2.812 2.646 5.84 2.646 8.998 0 4.09-1.715 7.046-3.093 9.425-1.35 2.323-2.176 3.866-2.176 6.195 0 5.389 7.516 7.158 9.82 7.572 4.86.873 9.104 2.933 11.808 4.506a.992.992 0 0 0 1.006 0c2.704-1.573 6.947-3.633 11.807-4.506 2.304-.414 9.82-2.183 9.82-7.572 0-2.33-.826-3.872-2.176-6.198-1.378-2.376-3.093-5.332-3.093-9.422m-3.867 27.001c-6.131 1.102-11.271 4.4-12.994 5.607-1.724-1.207-6.864-4.505-12.995-5.607C14.937 57.989 14 50.897 14 48.776c0-3.49 1.371-5.853 2.697-8.139 1.264-2.177 2.571-4.43 2.571-7.481 0-4.82-2.783-8.225-4.156-9.61 1.444-1.757 5.092-6.204 6.891-8.522C24.729 17.597 27.898 19 31.031 19c3.478 0 6.354-1.415 8.969-4.436C42.614 17.584 45.49 19 48.968 19c3.133 0 6.302-1.403 9.029-3.976 1.799 2.318 5.446 6.765 6.89 8.522-1.373 1.385-4.156 4.79-4.156 9.61 0 3.05 1.308 5.304 2.571 7.481C64.629 42.923 66 45.285 66 48.776c0 2.121-.938 9.213-13.006 11.381m12.038-20.523c-1.235-2.129-2.301-3.966-2.301-6.478 0-5.288 4.116-8.709 4.156-8.74A1.004 1.004 0 0 0 67.03 23c-.067-.08-6.622-8.027-8.124-10.086a.999.999 0 0 0-1.538-.094c-2.52 2.695-5.502 4.18-8.4 4.18-3.204 0-5.724-1.428-8.174-4.63-.379-.494-1.209-.494-1.588 0-2.451 3.202-4.971 4.63-8.175 4.63-2.898 0-5.88-1.485-8.4-4.18a.971.971 0 0 0-.791-.315 1 1 0 0 0-.747.409C19.591 14.973 13.036 22.92 12.969 23a1.001 1.001 0 0 0 .141 1.413c.042.034 4.158 3.455 4.158 8.743 0 2.512-1.066 4.35-2.301 6.478C13.576 42.031 12 44.747 12 48.776c0 6.711 5.477 11.702 14.652 13.35 6.907 1.242 12.682 5.623 12.739 5.668a1.001 1.001 0 0 0 1.218-.001c.058-.044 5.813-4.422 12.738-5.666C62.522 60.478 68 55.487 68 48.776c0-4.029-1.577-6.745-2.968-9.142"></path></g></svg></svg></g><g><svg cursor="pointer" x="140" y="200"><svg xmlns="http://www.w3.org/2000/svg" width="80" height="80"><g fill="none" fill-rule="evenodd"><path fill="#7AA116" d="M0 0h80v80H0z"></path><path fill="#FFF" d="m60.836 42.893.384-2.704c3.54 2.12 3.587 2.997 3.586 3.02-.006.006-.61.51-3.97-.316Zm-1.943-.54C52.773 40.5 44.25 36.59 40.8 34.96c0-.014.004-.027.004-.041a2.406 2.406 0 0 0-2.404-2.403 2.406 2.406 0 0 0-2.402 2.403 2.406 2.406 0 0 0 2.402 2.403c.582 0 1.11-.217 1.527-.562 4.058 1.92 12.515 5.774 18.68 7.594L56.17 61.56a.955.955 0 0 0-.01.14c0 1.516-6.707 4.299-17.666 4.299-11.075 0-17.853-2.783-17.853-4.298 0-.046-.003-.091-.01-.136l-5.093-37.207c4.409 3.035 13.892 4.64 22.962 4.64 9.056 0 18.523-1.6 22.94-4.625l-2.547 17.979ZM15 20.478C15.072 19.162 22.634 14 38.5 14c15.864 0 23.427 5.16 23.5 6.478v.449C61.13 23.877 51.33 27 38.5 27c-12.852 0-22.657-3.132-23.5-6.087v-.435Zm49 .022c0-3.465-9.934-8.5-25.5-8.5S13 17.035 13 20.5l.094.754 5.548 40.524C18.775 66.31 30.86 68 38.494 68c9.472 0 19.535-2.178 19.665-6.22l2.396-16.896c1.333.319 2.43.482 3.31.482 1.184 0 1.984-.29 2.469-.867a1.95 1.95 0 0 0 .436-1.66c-.26-1.383-1.902-2.875-5.248-4.784l2.376-16.762L64 20.5Z"></path></g></svg></svg></g><g><svg cursor="pointer" x="640" y="460"><svg xmlns="http://www.w3.org/2000/svg" width="80" height="80"><g fill="none" fill-rule="evenodd"><path fill="#8C4FFF" d="M0 0h80v80H0z"></path><path fill="#FFF" d="M30 53c-7.168 0-13-5.832-13-13s5.832-13 13-13 13 5.832 13 13-5.832 13-13 13m30 6c0 2.206-1.794 4-4 4s-4-1.794-4-4 1.794-4 4-4 4 1.794 4 4m-4-42c2.206 0 4 1.794 4 4s-1.794 4-4 4-4-1.794-4-4 1.794-4 4-4m3 19c2.206 0 4 1.794 4 4s-1.794 4-4 4-4-1.794-4-4 1.794-4 4-4m-14.051 5h8.141c.478 2.833 2.943 5 5.91 5 3.309 0 6-2.691 6-6s-2.691-6-6-6c-2.967 0-5.432 2.167-5.91 5h-8.141a14.851 14.851 0 0 0-1.377-5.346l8.874-7.831A5.96 5.96 0 0 0 56 27c3.309 0 6-2.691 6-6s-2.691-6-6-6-6 2.691-6 6c0 1.256.389 2.421 1.051 3.386l-8.47 7.473C39.904 27.738 35.271 25 30 25c-8.271 0-15 6.729-15 15s6.729 15 15 15c5.271 0 9.904-2.738 12.581-6.859l8.47 7.473A5.964 5.964 0 0 0 50 59c0 3.309 2.691 6 6 6s6-2.691 6-6-2.691-6-6-6a5.96 5.96 0 0 0-3.554 1.177l-8.874-7.831A14.851 14.851 0 0 0 44.949 41"></path></g></svg></svg></g><g><svg cursor="pointer" x="100" y="760"><svg xmlns="http://www.w3.org/2000/svg" width="80" height="80"><g fill="none" fill-rule="evenodd"><path fill="#7AA116" d="M0 0h80v80H0z"></path><path fill="#FFF" d="M31.378 24.024c6.264-2.62 10.7.826 12.316 2.429 1.318 1.309 2.346 2.98 3.056 4.967a1 1 0 0 0 1.74.265c.788-1.048 1.942-1.65 3.163-1.65 1.825 0 4.037 1.386 4.266 5.289a.999.999 0 0 0 .793.92c4.533.952 6.832 3.467 6.832 7.472 0 3.722-1.704 6.022-5.063 6.837l.47 1.943c4.252-1.03 6.593-4.148 6.593-8.78 0-4.715-2.726-7.981-7.696-9.26-.542-4.428-3.439-6.42-6.195-6.42a5.805 5.805 0 0 0-3.61 1.265c-.76-1.65-1.745-3.08-2.94-4.269-3.963-3.925-9.38-4.992-14.497-2.853-4.377 1.836-7.677 6.898-7.677 11.776 0 .24.008.487.023.742-4.017 1.322-6.388 4.615-6.388 8.961 0 .22.01.437.022.65.207 3.757 2.717 7.007 6.395 8.277l.652-1.89c-2.905-1.004-4.888-3.555-5.05-6.494-.009-.176-.019-.359-.019-.543 0-5.083 3.573-6.73 5.702-7.26.49-.121.811-.588.752-1.09a11.21 11.21 0 0 1-.089-1.353c0-4.052 2.833-8.414 6.449-9.93Zm20.604 20.977c0-.397-.085-.696-.241-.842-.171-.159-.47-.174-.692-.16l-13.067.002a1 1 0 0 1-1-1c0-.27-.101-1.03-.217-1.5h-3.46c-.152.46-.316 1.24-.323 1.504-.014.542-.458.996-1 .996h-3c-.293-.019-.588 0-.758.158-.156.146-.243.445-.243.842v14h24v-14Zm2 2v7.229L56.564 47h-2.582Zm-.058 13.338-.009-.003a.991.991 0 0 1-.933.666h-26a1 1 0 0 1-1-1v-15c0-1.227.475-1.93.874-2.304.383-.358 1.063-.777 2.193-.694l2.05-.002c.178-1.035.622-2.502 1.69-2.502h4.553c.06 0 .123.006.184.017.94.176 1.274 1.511 1.392 2.484h12.064c1.057-.073 1.742.34 2.125.697.4.374.875 1.077.875 2.303h4a1 1 0 0 1 .942 1.336l-5 14.002Zm12.058 4.248-7.606-7.606-1.414 1.414L64.567 66h-5.503v2h7.918a1 1 0 0 0 1-1v-7.918h-2v5.505Zm-43.358-7.641-8.642 7.803v-5.667h-2V67a1 1 0 0 0 1 1h8.92v-2h-6.32l8.382-7.57-1.34-1.484ZM66.982 12h-8.918v2h6.667l-7.804 8.642 1.484 1.34 7.571-8.383v6.32h2V13a1 1 0 0 0-1-1Zm-53 9.92h-2V13a1 1 0 0 1 1-1h8.92v2h-6.506l8.605 8.605-1.414 1.414-8.605-8.604v6.504Z"></path></g></svg></svg></g></g></svg>